<?xml version="1.0" standalone="no"?>
<!DOCTYPE svg PUBLIC "-//W3C//DTD SVG 1.1//EN" "http://www.w3.org/Graphics/SVG/1.1/DTD/svg11.dtd" >
<svg xmlns="http://www.w3.org/2000/svg">
<metadata></metadata>
<defs>
<font id="gt_pressuraregular_italic" horiz-adv-x="1024" >
<font-face units-per-em="2048" ascent="1638" descent="-410" />
<missing-glyph horiz-adv-x="471" />
<glyph horiz-adv-x="2048" />
<glyph horiz-adv-x="2048" />
<glyph unicode="&#xd;" horiz-adv-x="682" />
<glyph unicode=" "  horiz-adv-x="471" />
<glyph unicode="&#x09;" horiz-adv-x="471" />
<glyph unicode="&#xa0;" horiz-adv-x="471" />
<glyph unicode="!" horiz-adv-x="538" d="M76 41l35 170q4 16 19 28.5t32 12.5h170q16 0 25.5 -12.5t4.5 -28.5l-34 -170q-4 -16 -18.5 -28.5t-30.5 -12.5h-170q-16 0 -26.5 12.5t-6.5 28.5zM184 430l205 963q4 16 18.5 28.5t30.5 12.5h115q16 0 26.5 -12.5t6.5 -28.5l-205 -963q-4 -16 -18.5 -28.5t-30.5 -12.5 h-115q-16 0 -26.5 12.5t-6.5 28.5z" />
<glyph unicode="&#x22;" horiz-adv-x="833" d="M139 923.5q-6 22.5 13 45.5l131 172q8 10 3 18t-16 8h-34q-16 0 -26.5 12.5t-6.5 28.5l39 185q4 16 18 28.5t31 12.5h184q16 0 26.5 -12.5t6.5 -28.5l-39 -185q-10 -41 -27.5 -70.5t-40.5 -56.5l-139 -149q-8 -10 -22.5 -20.5t-36.5 -10.5h-29q-29 0 -35 22.5zM549 923.5 q-6 22.5 12 45.5l131 172q8 10 3 18t-15 8h-35q-16 0 -26.5 12.5t-6.5 28.5l39 185q4 16 18.5 28.5t30.5 12.5h185q16 0 26.5 -12.5t6.5 -28.5l-39 -185q-10 -41 -27.5 -70.5t-40.5 -56.5l-139 -149q-8 -10 -22.5 -20.5t-37.5 -10.5h-28q-29 0 -35 22.5z" />
<glyph unicode="#" horiz-adv-x="1181" d="M86 375l29 76q8 16 25.5 28.5t33.5 12.5h102q23 0 29 20l144 369q6 20 -13 20h-102q-16 0 -24.5 12.5t-2.5 28.5l29 76q6 16 23.5 28.5t33.5 12.5h103q20 0 30 20l121 314q6 16 22.5 28.5t32.5 12.5h86q16 0 24.5 -12.5t2.5 -28.5l-121 -314q-10 -20 11 -20h196 q20 0 31 20l121 314q6 16 22.5 28.5t32.5 12.5h86q16 0 24.5 -12.5t2.5 -28.5l-121 -314q-10 -20 10 -20h102q16 0 23.5 -12.5t1.5 -28.5l-29 -76q-6 -16 -22.5 -28.5t-32.5 -12.5h-102q-23 0 -29 -20l-143 -369q-10 -20 12 -20h102q16 0 23.5 -12.5t-0.5 -28.5l-29 -76 q-6 -16 -22.5 -28.5t-32.5 -12.5h-103q-23 0 -28 -21l-107 -272q-8 -16 -23.5 -28.5t-31.5 -12.5h-86q-16 0 -25.5 12.5t-1.5 28.5l107 272q6 20 -12 21h-187q-10 0 -22.5 -5t-16.5 -16l-106 -272q-8 -16 -23.5 -28.5t-32.5 -12.5h-86q-16 0 -25 12.5t-1 28.5l106 272 q6 20 -12 21h-102q-16 0 -24.5 12t-2.5 29zM473 512q-10 -20 12 -20h197q23 0 29 20l143 369q6 20 -12 20h-197q-23 0 -29 -20z" />
<glyph unicode="$" horiz-adv-x="1042" d="M70.5 249.5q-13.5 67.5 3.5 160.5l6 32q4 16 19.5 28.5t31.5 12.5h115q16 0 25.5 -12t4.5 -29l-6 -32q-23 -100 33.5 -166t202.5 -66q59 0 113.5 20.5t95.5 56.5t64.5 84t23.5 103q0 35 -9.5 67t-33 58.5t-65.5 50t-107 44.5q-172 53 -255 145t-83 217q0 90 30.5 160.5 t84 122t123 85.5t147.5 50q23 6 24 20l13 54q4 16 18.5 28t30.5 12h92q16 0 26.5 -12t6.5 -28l-12 -58q-2 -14 16 -20q141 -33 205.5 -135.5t36.5 -237.5l-7 -27q-4 -16 -18 -28.5t-31 -12.5h-112q-16 0 -26.5 12.5t-6.5 28.5l6 27q23 104 -24.5 149.5t-157.5 45.5 q-51 0 -99.5 -13.5t-85 -40t-59 -67.5t-22.5 -95q0 -47 23.5 -80.5t57 -57t73.5 -39t75 -27.5q160 -57 243 -141.5t83 -225.5q0 -98 -31 -179t-86.5 -143.5t-131 -103.5t-165.5 -55q-23 -2 -25 -19l-12 -55q-4 -16 -18.5 -28.5t-30.5 -12.5h-92q-16 0 -26.5 12.5t-6.5 28.5 l12 55q2 14 -18 21q-82 23 -145.5 56.5t-103.5 82.5t-53.5 116.5z" />
<glyph unicode="%" horiz-adv-x="1325" d="M73.5 18.5q-10.5 18.5 8.5 38.5l1161 1346q25 31 51 31h78q20 0 28.5 -18.5t-7.5 -39.5l-1157 -1345q-25 -31 -50 -31h-82q-20 0 -30.5 18.5zM266 993q2 31 5 55.5t8.5 47t12.5 47t17 55.5q14 41 40 80t61.5 68.5t80 48t95.5 18.5q92 0 142 -58.5t42 -156.5 q-6 -61 -14 -102t-29 -103q-14 -43 -39.5 -82t-61.5 -68.5t-80 -47t-95 -17.5q-92 0 -143.5 57.5t-41.5 157.5zM414 1008q-4 -29 13 -53.5t56 -24.5q33 0 60.5 21.5t42.5 56.5q14 41 23 88t14 88q2 29 -14.5 51t-55.5 22q-33 0 -61.5 -19t-40.5 -54q-12 -41 -22.5 -88 t-14.5 -88zM707 236q4 61 13 102t30 102q14 41 40.5 80t62.5 68.5t80 48t95 18.5q92 0 142.5 -58t39.5 -157q-4 -61 -13 -102t-30 -102q-14 -43 -39.5 -82t-60.5 -69t-79 -47.5t-95 -17.5q-92 0 -144.5 57.5t-41.5 158.5zM854 250q-4 -29 13.5 -53.5t56.5 -24.5 q33 0 61.5 21.5t40.5 56.5q14 41 24.5 88t14.5 88q2 29 -15.5 51.5t-56.5 22.5q-33 0 -60.5 -19.5t-39.5 -54.5q-14 -41 -24.5 -88t-14.5 -88z" />
<glyph unicode="&#x26;" horiz-adv-x="1239" d="M111 328q0 70 23.5 134t59 121.5t78.5 103.5t84 79q16 12 15.5 25.5t-4.5 23.5q-18 43 -35 87t-17 120q0 94 34 171t92.5 130t137 82t169.5 29q88 0 155.5 -27t110.5 -75t57 -117.5t-2 -155.5l-6 -31q-4 -16 -19.5 -28.5t-31.5 -12.5h-105q-16 0 -25.5 12.5t-4.5 28.5 l6 31q18 90 -17 145.5t-118 55.5q-51 0 -96.5 -18.5t-78 -50.5t-52 -76t-19.5 -93q0 -37 14 -77t34.5 -75.5t40 -66.5t32.5 -49l192 -314q4 -8 12.5 -4t12.5 21q10 33 18 73.5t8 83.5q0 20 13.5 30.5t29.5 10.5h97q20 0 30.5 -12t10.5 -29q0 -61 -10.5 -114.5t-24 -94 t-27.5 -70.5t-22 -44q-2 -4 -6.5 -13.5t4.5 -21.5l118 -180q12 -20 -3 -48t-50 -28h-100q-23 0 -30 7t-11 13l-58 82q-10 12 -17 8t-11 -8q-31 -29 -71 -50t-81 -36.5t-81 -23.5t-72 -8q-80 0 -150 22.5t-122 66.5t-81.5 107.5t-29.5 147.5zM301 328q0 -39 16.5 -69 t44 -50.5t61.5 -30.5t71 -10q66 0 117 26.5t83 55.5q4 4 8.5 8t-0.5 12l-221 351q-4 6 -8 4t-6 -4q-25 -20 -53.5 -47t-53 -63t-42 -81t-17.5 -102z" />
<glyph unicode="'" horiz-adv-x="462" d="M143 891l142 270q6 12 1.5 19.5t-14.5 7.5q-16 0 -26 12t-6 29l41 184q4 16 18 28.5t31 12.5h184q16 0 26.5 -12t6.5 -29l-39 -176q-4 -25 -12.5 -40t-22.5 -32l-223 -274q-10 -14 -26.5 -27.5t-47.5 -13.5q-16 0 -29.5 9t-3.5 32z" />
<glyph unicode="(" horiz-adv-x="698" d="M109 246q4 41 14 105.5t24.5 139t31 155.5t34.5 156t34.5 138.5t31.5 103.5q27 84 70.5 162t107 137.5t148.5 95.5t194 36h57q16 0 25.5 -12.5t5.5 -28.5l-21 -99q-4 -16 -18 -28.5t-31 -12.5h-24q-119 0 -204 -68.5t-126 -181.5q-25 -63 -52.5 -171.5t-53 -227.5 t-44 -227.5t-20.5 -171.5q-2 -45 7 -89t34.5 -80t70 -58.5t111.5 -22.5h37q16 0 26.5 -12.5t6.5 -28.5l-21 -98q-4 -16 -19.5 -28.5t-31.5 -12.5h-16q-201 0 -303.5 115.5t-85.5 314.5z" />
<glyph unicode=")" horiz-adv-x="698" d="M-86 -143l20 98q4 16 18.5 28.5t31.5 12.5h36q74 0 128.5 22.5t94.5 58.5t65.5 80t41.5 89q23 63 51.5 171.5t54 227.5t43 227.5t21.5 171.5q6 113 -50 181.5t-173 68.5h-25q-16 0 -26 12.5t-6 28.5l20 99q4 16 19.5 28.5t31.5 12.5h11q106 0 182 -36t123 -95.5 t66.5 -137.5t11.5 -162q-4 -41 -14.5 -104t-25 -138t-31 -156t-34.5 -155.5t-34.5 -139t-30.5 -105.5q-66 -199 -191 -314.5t-324 -115.5h-75q-16 0 -25.5 12t-5.5 29z" />
<glyph unicode="*" horiz-adv-x="741" d="M266 1098q-6 14 2 29.5t25 25.5l94 45l-76 45q-14 8 -14 24.5t12 30.5l60 76q10 14 27.5 19.5t29.5 -4.5l70 -52l18 97q4 16 18.5 28.5t30.5 12.5h86q16 0 26.5 -12.5t6.5 -28.5l-25 -97l93 52q16 10 32.5 5t20.5 -22l26 -74q6 -14 -1 -29.5t-25 -25.5l-94 -45l75 -45 q14 -8 14.5 -24.5t-12.5 -30.5l-59 -76q-10 -14 -26.5 -19.5t-30.5 5.5l-72 49l-16 -94q-4 -16 -18.5 -28.5t-31.5 -12.5h-86q-16 0 -26 12t-6 29l22 96l-90 -51q-16 -10 -31.5 -5t-19.5 21z" />
<glyph unicode="+" horiz-adv-x="1105" d="M123 459l22 106q4 16 18.5 28.5t31.5 12.5h294q20 0 25 21l64 295q4 16 18 28.5t31 12.5h106q16 0 26.5 -12.5t6.5 -28.5l-64 -295q-4 -20 17 -21h295q16 0 26.5 -12t6.5 -29l-23 -106q-4 -16 -18.5 -28.5t-30.5 -12.5h-295q-20 0 -25 -21l-63 -295q-4 -16 -18.5 -28.5 t-30.5 -12.5h-107q-16 0 -26.5 12.5t-6.5 28.5l64 295q4 20 -16 21h-295q-16 0 -26.5 12t-6.5 29z" />
<glyph unicode="," horiz-adv-x="579" d="M39 -243.5q-6 22.5 12 44.5l131 172q8 10 3 18.5t-15 8.5h-35q-16 0 -26.5 12.5t-6.5 28.5l39 184q4 16 18.5 28.5t30.5 12.5h185q16 0 26.5 -12t6.5 -29l-39 -184q-10 -41 -27.5 -70.5t-40.5 -56.5l-139 -150q-8 -10 -22.5 -20t-37.5 -10h-28q-29 0 -35 22.5z" />
<glyph unicode="-" horiz-adv-x="927" d="M168 477l29 139q4 16 19 28.5t32 12.5h559q16 0 25.5 -12t5.5 -29l-29 -139q-4 -16 -18.5 -28.5t-30.5 -12.5h-559q-16 0 -26.5 12.5t-6.5 28.5z" />
<glyph unicode="." horiz-adv-x="581" d="M96 41l39 184q4 16 18.5 28.5t30.5 12.5h185q16 0 26.5 -12t5.5 -29l-39 -184q-4 -16 -18 -28.5t-31 -12.5h-184q-16 0 -26.5 12.5t-6.5 28.5z" />
<glyph unicode="/" horiz-adv-x="937" d="M30 -7.5q-7 17.5 7 40.5l840 1390q16 31 45 31h106q20 0 27.5 -17.5t-6.5 -39.5l-836 -1391q-16 -31 -49 -31h-107q-20 0 -27 17.5z" />
<glyph unicode="0" horiz-adv-x="1064" d="M96 410q6 61 18.5 142t29 166t37 165t40.5 141q29 84 72 161t103.5 136t139.5 94t181 35q92 0 168 -29.5t128 -85t76.5 -134.5t16.5 -177q-6 -61 -18.5 -142t-30 -165t-37 -165t-39.5 -142q-29 -84 -71 -162t-103.5 -136.5t-141 -93t-180.5 -34.5q-92 0 -167.5 29.5 t-128 85t-78 134t-15.5 177.5zM281 410q-4 -45 4 -89.5t32.5 -78t65.5 -54t102 -20.5q104 0 185.5 64.5t122.5 177.5q23 63 44 143t38.5 163t30 162.5t16.5 145.5q2 45 -6.5 89t-32 78t-64.5 54.5t-102 20.5q-102 0 -185 -63.5t-122 -178.5q-23 -66 -43.5 -145.5t-38 -162.5 t-30.5 -163t-17 -143z" />
<glyph unicode="1" horiz-adv-x="743" d="M96 770l47 186q6 27 25.5 49.5t34.5 34.5l422 375q23 18 45 19h127q16 0 26.5 -12.5t5.5 -28.5l-286 -1352q-4 -16 -18.5 -28.5t-30.5 -12.5h-109q-16 0 -26.5 12.5t-6.5 28.5l232 1073q2 10 -4.5 11t-12.5 -3l-428 -368q-16 -14 -31.5 -7t-11.5 23z" />
<glyph unicode="2" horiz-adv-x="946" d="M-6 41l26 133q4 23 14.5 35t18.5 18l541 492q41 37 81 79t71.5 90t51 102t19.5 116q0 59 -37 109.5t-121 50.5q-53 0 -95 -17.5t-72.5 -46t-50 -65.5t-27.5 -78l-6 -31q-4 -16 -18.5 -28.5t-31.5 -12.5h-106q-16 0 -26.5 12.5t-6.5 28.5l6 31q18 82 55 153.5t91.5 124 t127 83t160.5 30.5t154 -28.5t109 -77t63.5 -111t20.5 -127.5q0 -82 -22.5 -151.5t-63.5 -133t-98.5 -124t-127.5 -124.5l-393 -358q-10 -10 -9 -21.5t17 -11.5h516q23 0 30 -12t3 -29l-20 -100q-4 -16 -16.5 -28.5t-35.5 -12.5h-761q-16 0 -25.5 12.5t-5.5 28.5z" />
<glyph unicode="3" horiz-adv-x="995" d="M70 406l4 14q4 16 18 28.5t31 12.5h113q16 0 26 -12.5t6 -28.5l-4 -14q-10 -47 1 -88.5t39 -72t71 -49t96 -18.5q51 0 99 17.5t85 51.5t59.5 84t22.5 115q0 90 -42 148.5t-136 58.5h-24q-16 0 -26.5 12.5t-6.5 28.5l22 109q4 16 19.5 28.5t31.5 12.5h25q51 0 96 19.5 t79 53t52.5 80.5t18.5 103q0 57 -40 106t-130 49q-51 0 -92 -16t-72 -43t-50.5 -62.5t-27.5 -74.5l-6 -31q-4 -16 -18.5 -28.5t-30.5 -12.5h-111q-16 0 -26.5 12.5t-5.5 28.5l6 31q16 82 55 153.5t95.5 124t129 83t154.5 30.5q90 0 158.5 -28.5t114.5 -77t68.5 -112 t22.5 -132.5q0 -57 -18 -108.5t-47 -94.5t-65 -79t-68 -60q-16 -10 -20.5 -23.5t7.5 -25.5q41 -43 72 -110t31 -153q0 -109 -40 -194.5t-104.5 -145t-147.5 -91t-169 -31.5q-90 0 -171 32.5t-138.5 90t-84 134t-7.5 165.5z" />
<glyph unicode="4" horiz-adv-x="1005" d="M23 307l20 90q4 23 18.5 40.5t30.5 37.5l692 930q14 16 23.5 22.5t26.5 6.5h163q16 0 26.5 -12.5t6.5 -28.5l-199 -932q-4 -20 17 -21h92q16 0 26.5 -12t6.5 -29l-21 -92q-4 -16 -18 -28.5t-31 -12.5h-92q-20 0 -25 -20l-43 -205q-4 -16 -18 -28.5t-31 -12.5h-102 q-16 0 -26.5 12.5t-6.5 28.5l43 205q4 20 -16 20h-531q-16 0 -26.5 12.5t-5.5 28.5zM295 457q-12 -16 4 -17h324q20 0 24 21l141 645q2 10 -5 10t-11 -6z" />
<glyph unicode="5" d="M102 358q10 41 50 41h104q16 0 26.5 -12t6.5 -29q-10 -43 2 -77.5t38.5 -59t65.5 -39t84 -14.5q76 0 134.5 34t98.5 89t59.5 122.5t19.5 135.5q0 98 -44.5 159.5t-138.5 61.5q-63 0 -118.5 -35t-92.5 -88q-10 -14 -19 -18t-24 -4h-110q-16 0 -26.5 12t-6.5 29l154 727 q4 16 19 28.5t32 12.5h631q16 0 25 -12.5t5 -28.5l-20 -103q-4 -16 -18.5 -28.5t-30.5 -12.5h-478q-23 0 -26 -20l-64 -307q-4 -16 6.5 -24.5t34.5 7.5q35 25 76 37t72 12q86 0 150.5 -31.5t107.5 -85t64.5 -127t21.5 -155.5q0 -115 -36 -218.5t-101.5 -181t-155.5 -124.5 t-201 -47q-90 0 -166.5 28.5t-129 78.5t-75 118.5t-6.5 148.5z" />
<glyph unicode="6" horiz-adv-x="1036" d="M113 369q0 74 12 161.5t30.5 177t40 172.5t42.5 144q29 88 72.5 166t103 135t133.5 91t164 34q96 0 168.5 -35t117.5 -90t61.5 -124.5t2.5 -141.5q-4 -16 -18.5 -28.5t-30.5 -12.5h-107q-16 0 -26.5 12t-6.5 29q8 39 3 75.5t-24.5 66.5t-54 47.5t-85.5 17.5 q-104 0 -172 -65.5t-109 -164.5q-14 -33 -28.5 -84t-22.5 -92q-2 -12 7 -18t24 4q35 23 89 51.5t132 28.5q94 0 159.5 -33t107.5 -88t60.5 -126t18.5 -147q0 -109 -36 -207t-99.5 -174.5t-153.5 -121.5t-196 -45q-184 0 -281.5 103t-97.5 282zM313 369q0 -31 9.5 -66 t30 -63.5t54 -48t85.5 -19.5q84 0 141 35t92 87t50.5 113.5t15.5 114.5q0 98 -38.5 156.5t-140.5 58.5q-84 0 -140 -34.5t-92 -89t-51.5 -119t-15.5 -125.5z" />
<glyph unicode="7" horiz-adv-x="860" d="M107 16.5q-3 16.5 6 32.5l673 1176q4 8 2 14t-12 6h-551q-16 0 -26.5 12.5t-5.5 28.5l22 107q4 16 18.5 28.5t30.5 12.5h737q16 0 26.5 -12.5t6.5 -28.5l-28 -142q-2 -10 -6.5 -18t-12.5 -23l-665 -1179q-20 -31 -46 -31h-137q-29 0 -32 16.5z" />
<glyph unicode="8" horiz-adv-x="1064" d="M80 346q0 129 66.5 225.5t168.5 161.5q18 10 18.5 24.5t-7.5 24.5q-31 43 -51.5 99.5t-20.5 122.5q0 82 36 161.5t98.5 143t147.5 102.5t183 39q86 0 155.5 -26.5t119.5 -72.5t78 -109.5t28 -135.5q0 -102 -50.5 -190.5t-136.5 -149.5q-39 -28 -16 -51q49 -49 74.5 -116 t25.5 -138q0 -96 -35.5 -183.5t-102 -153t-158 -103t-201.5 -37.5q-94 0 -171 27.5t-132.5 76.5t-86 114.5t-30.5 143.5zM274 369q0 -92 64 -144.5t162 -52.5q66 0 122 23.5t97 63.5t64.5 92t23.5 110q0 76 -59.5 129t-159.5 53q-59 0 -114.5 -19.5t-100.5 -55.5t-72 -86 t-27 -113zM442 1004q0 -63 49.5 -109.5t139.5 -46.5q49 0 98 18.5t89 52t65.5 81t25.5 104.5q0 72 -50 117t-140 45q-59 0 -109.5 -18.5t-87.5 -52.5t-58.5 -83t-21.5 -108z" />
<glyph unicode="9" horiz-adv-x="1026" d="M90 222.5q-16 70.5 2 152.5q4 16 19.5 28.5t31.5 12.5h107q16 0 25.5 -12.5t5.5 -28.5q-10 -39 -6 -76t24 -66.5t60 -47t106 -17.5q104 0 172 65.5t108 163.5q14 33 28.5 84t23.5 92q2 12 -7.5 18.5t-23.5 -3.5q-35 -23 -89 -51.5t-132 -28.5q-94 0 -160 32.5t-107.5 88 t-60 126t-18.5 146.5q0 106 35.5 205.5t99 176.5t152.5 122t198 45q184 0 281.5 -103.5t97.5 -281.5q0 -74 -12.5 -162t-31 -177t-40 -172t-41.5 -144q-29 -88 -73 -166t-103.5 -135.5t-134 -91t-162.5 -33.5q-102 0 -181 30.5t-128.5 84t-65.5 124zM385 911 q0 -98 38 -156.5t140 -58.5q82 0 139.5 35t93 89t51 119t15.5 126q0 31 -9 65.5t-29.5 63.5t-54.5 48.5t-85 19.5q-84 0 -141.5 -35t-92 -87.5t-50 -113.5t-15.5 -115z" />
<glyph unicode=":" horiz-adv-x="579" d="M96 41l39 184q4 16 18.5 28.5t30.5 12.5h185q16 0 26.5 -12t5.5 -29l-39 -184q-4 -16 -19 -28.5t-32 -12.5h-184q-16 0 -25.5 12.5t-5.5 28.5zM252 778l39 185q4 16 19.5 28.5t31.5 12.5h184q16 0 25.5 -12.5t5.5 -28.5l-39 -185q-4 -16 -18.5 -28.5t-30.5 -12.5h-184 q-16 0 -26.5 12.5t-6.5 28.5z" />
<glyph unicode=";" horiz-adv-x="581" d="M37 -243.5q-6 22.5 12 44.5l131 172q8 10 3 18.5t-15 8.5h-35q-16 0 -26.5 12.5t-6.5 28.5l39 184q4 16 18.5 28.5t30.5 12.5h185q16 0 26.5 -12t6.5 -29l-39 -184q-10 -41 -27.5 -70.5t-40.5 -56.5l-139 -150q-8 -10 -22.5 -20t-37.5 -10h-28q-29 0 -35 22.5zM256 778 l39 185q4 16 18.5 28.5t30.5 12.5h184q16 0 26.5 -12.5t6.5 -28.5l-39 -185q-4 -16 -18.5 -28.5t-30.5 -12.5h-184q-16 0 -26.5 12.5t-6.5 28.5z" />
<glyph unicode="&#x3c;" horiz-adv-x="962" d="M63 463l21 100q6 27 41 45l829 416q16 8 30.5 -3t8.5 -36l-32 -131q-6 -25 -39 -43l-613 -299q-6 -4 -7 -8t5 -8l484 -299q27 -14 20 -43l-18 -115q-4 -25 -23.5 -36t-32.5 -3l-653 418q-27 16 -21 45z" />
<glyph unicode="=" horiz-adv-x="1105" d="M82 270l22 107q4 16 19.5 28.5t32.5 12.5h819q16 0 25.5 -12.5t5.5 -28.5l-23 -107q-4 -16 -18.5 -28.5t-30.5 -12.5h-819q-16 0 -26.5 12.5t-6.5 28.5zM162 647l24 107q4 16 18.5 28.5t31.5 12.5h819q16 0 26.5 -12.5t5.5 -28.5l-24 -107q-4 -16 -18.5 -28.5 t-30.5 -12.5h-819q-16 0 -26.5 12.5t-6.5 28.5z" />
<glyph unicode="&#x3e;" horiz-adv-x="962" d="M33 39l33 133q6 25 40 43l611 299q16 8 2 16l-481 299q-29 18 -23 43l18 113q4 25 23.5 36t32.5 3l653 -416q27 -16 21 -45l-21 -100q-6 -29 -41 -45l-829 -418q-16 -8 -30.5 3t-8.5 36z" />
<glyph unicode="?" horiz-adv-x="972" d="M236 1028l6 31q18 82 53 153.5t88 124t124 83t161 30.5q82 0 147.5 -25.5t110.5 -70.5t68.5 -103.5t23.5 -124.5q0 -68 -16.5 -121t-44 -96t-62.5 -75.5t-72 -57.5q-31 -23 -66.5 -44t-69.5 -45.5t-59.5 -52.5t-31.5 -61l-31 -143q-4 -16 -19.5 -28.5t-31.5 -12.5h-104 q-16 0 -25.5 12.5t-5.5 28.5l37 172q10 41 25.5 78t37.5 57q33 31 57.5 48.5t49 30.5t51.5 29.5t63 47.5q57 47 93 94t36 137q0 66 -44 102t-117 36q-51 0 -92 -17.5t-72 -46.5t-49.5 -65.5t-26.5 -73.5l-6 -31q-4 -16 -19.5 -28.5t-31.5 -12.5h-105q-16 0 -25.5 12.5 t-4.5 28.5zM264 41l37 170q4 16 18.5 28.5t30.5 12.5h170q16 0 26.5 -12.5t6.5 -28.5l-37 -170q-4 -16 -18.5 -28.5t-30.5 -12.5h-170q-16 0 -26.5 12.5t-6.5 28.5z" />
<glyph unicode="@" horiz-adv-x="1599" d="M109 451q0 176 63.5 332.5t175 273.5t262 185.5t324.5 68.5q152 0 271.5 -44t203.5 -121t129 -181.5t45 -227.5t-32.5 -231.5t-88 -188t-126 -127t-146.5 -47.5q-51 0 -84 11.5t-53 29.5q-23 20 -43.5 18.5t-53.5 -18.5q-76 -41 -155 -41q-84 0 -146.5 28t-102.5 74 t-59.5 107.5t-19.5 128.5q0 100 36 189.5t97.5 155t143 104.5t174.5 39q92 0 152.5 -25.5t93 -67.5t41 -96.5t-2.5 -109.5l-55 -281q-10 -47 3 -74.5t54 -27.5q37 0 75 32.5t67.5 92t48 142.5t18.5 183q0 92 -32.5 170t-94 135.5t-151.5 89t-205 31.5q-139 0 -258 -56 t-207 -153.5t-138 -227.5t-50 -275q0 -109 37.5 -198t107.5 -153.5t164 -100.5t209 -36q59 0 112.5 10t106.5 33q23 10 35 0t8 -31l-14 -73q-4 -25 -21.5 -38.5t-40.5 -19.5q-53 -16 -91 -22t-95 -6q-160 0 -288 47t-218 132t-138 200.5t-48 255.5zM647 481q0 -92 45 -140 t105 -48q33 0 66.5 9t63 27.5t50 47.5t29.5 67l45 226q16 74 -15.5 113.5t-111.5 39.5q-63 0 -114.5 -29.5t-87.5 -77.5t-55.5 -109.5t-19.5 -125.5z" />
<glyph unicode="A" horiz-adv-x="1028" d="M-20 27.5q0 6.5 4 13.5l669 1362q14 31 45 31h144q29 0 32 -31l93 -1362q2 -14 -11.5 -27.5t-37.5 -13.5h-109q-29 0 -33 31l-20 313q-4 29 -33 29h-342q-33 0 -45 -29l-156 -313q-14 -31 -45 -31h-119q-25 0 -32 14q-4 7 -4 13.5zM449 575q0 -12 14 -12h256q20 0 20 23 l-12 571q0 12 -6 12h-4q-4 0 -10 -12l-256 -571q-2 -7 -2 -11z" />
<glyph unicode="B" horiz-adv-x="1028" d="M52 32q0 5 1 9l289 1352q4 16 18.5 28.5t30.5 12.5h338q176 0 268.5 -92.5t92.5 -245.5q0 -35 -9.5 -78t-31 -86t-57.5 -85t-89 -73q-16 -10 -22.5 -22.5t8.5 -26.5q94 -94 94 -244q0 -96 -35 -183t-97.5 -152.5t-150.5 -105.5t-194 -40h-420q-16 0 -26 12q-8 9 -8 20z M280 209q0 -14 17 -14h209q66 0 118 23.5t89 63.5t56 92t19 107q0 90 -41.5 134t-119.5 44h-230q-23 0 -26 -20l-90 -424q-1 -3 -1 -6zM419 858q0 -14 17 -14h189q63 0 113 22.5t85 58.5t53.5 81t18.5 90q0 80 -50 111.5t-116 31.5h-209q-20 0 -24 -20l-76 -355q-1 -3 -1 -6 z" />
<glyph unicode="C" horiz-adv-x="1107" d="M110 357q0 26 3 53q6 61 18 142t28.5 166t37 165t41.5 141q29 84 72.5 161t106 136t145.5 94t190 35q102 0 187 -33t141 -90t80 -135q12 -39 13 -82q0 -42 -12 -86l-8 -33q-4 -16 -18.5 -28.5t-30.5 -12.5h-113q-16 0 -25.5 13.5t-4.5 35.5l4 25q4 23 4 46q0 67 -41 118 q-54 66 -176 67q-117 0 -197 -59t-119 -172q-20 -63 -40.5 -143t-39 -164t-31 -164t-18.5 -143q-1 -12 -1 -23q0 -33 8 -64q12 -42 38.5 -74t69.5 -51.5t102 -19.5q119 0 201 57.5t111 174.5l8 34q4 16 18.5 28.5t30.5 12.5h115q16 0 26 -12t6 -29l-6 -34q-18 -86 -58 -164 t-103.5 -136.5t-150.5 -92t-198 -33.5q-92 0 -171 29.5t-136 85t-86 133.5q-21 57 -21 125z" />
<glyph unicode="D" horiz-adv-x="1091" d="M52 32q0 5 1 9l287 1352q4 16 18.5 28.5t30.5 12.5h322q92 0 171 -27t136 -79q56 -52 84 -129q21 -60 22 -132q0 -21 -2 -43q-6 -61 -18 -142t-29.5 -165t-37 -165t-40.5 -142q-29 -84 -68.5 -159t-100 -130t-144.5 -88t-201 -33h-397q-16 0 -26 12q-8 9 -8 20zM284 209 q0 -14 17 -14h182q119 0 197 52t119 163q23 63 44 143t38.5 164t30 164t16.5 143q1 12 1 26q0 73 -45 126q-52 62 -173 63h-189q-20 0 -24 -20l-213 -1004q-1 -3 -1 -6z" />
<glyph unicode="E" horiz-adv-x="950" d="M52 32q0 5 1 9l287 1352q4 16 18.5 28.5t30.5 12.5h662q16 0 26 -12q7 -9 7 -20q0 -4 -1 -9l-24 -113q-4 -16 -18.5 -28.5t-30.5 -12.5h-488q-20 0 -24 -20l-78 -369q-4 -20 16 -21h471q16 0 25.5 -12t5.5 -29l-23 -112q-4 -16 -19 -28.5t-32 -12.5h-471q-20 0 -24 -21 l-84 -399q-4 -20 16 -20h498q16 0 25.5 -12.5t4.5 -28.5l-22 -113q-4 -16 -18.5 -28.5t-30.5 -12.5h-672q-16 0 -26 12q-8 9 -8 20z" />
<glyph unicode="F" horiz-adv-x="905" d="M52 32q0 5 1 9l287 1352q4 16 18.5 28.5t30.5 12.5h662q16 0 26 -12q7 -9 7 -20q0 -4 -1 -9l-24 -113q-4 -16 -18.5 -28.5t-30.5 -12.5h-488q-20 0 -24 -20l-78 -369q-4 -20 16 -21h465q16 0 25.5 -12t5.5 -29l-23 -112q-4 -16 -19.5 -28.5t-31.5 -12.5h-465 q-20 0 -24 -21l-121 -573q-4 -16 -18.5 -28.5t-30.5 -12.5h-113q-16 0 -26 12q-8 9 -8 20z" />
<glyph unicode="G" horiz-adv-x="1116" d="M110 357q0 26 3 53q6 61 18 142t28.5 166t37 165t41.5 141q29 84 75.5 161t113.5 136t153 94t192 35q92 0 174 -29.5t137.5 -85t78.5 -134.5q12 -38 12 -81q0 -45 -13 -96l-8 -33q-4 -16 -18.5 -28.5t-30.5 -12.5h-113q-16 0 -25.5 13.5t-4.5 35.5l4 25q4 23 4 43 q0 70 -41 121q-54 67 -176 67q-117 0 -197 -59t-119 -172q-20 -63 -40.5 -143t-39 -164t-31 -164t-18.5 -143q-1 -12 -1 -23q0 -33 8 -64q12 -42 38.5 -74t69.5 -51.5t102 -19.5q119 0 203 57.5t109 174.5l36 172q4 20 -16 20h-182q-16 0 -26.5 12.5t-6.5 28.5l25 113 q4 16 18 28.5t31 12.5h360q16 0 26.5 -12.5t6.5 -28.5l-74 -346q-18 -86 -57 -164t-100.5 -136.5t-148.5 -92t-204 -33.5q-92 0 -171 29.5t-136 85t-86 133.5q-21 57 -21 125z" />
<glyph unicode="H" horiz-adv-x="1134" d="M52 32q0 5 1 9l287 1352q4 16 18.5 28.5t30.5 12.5h113q16 0 26.5 -12.5t6.5 -28.5l-115 -543q-4 -20 16 -21h451q20 0 24 21l115 543q4 16 18.5 28.5t30.5 12.5h113q16 0 26 -12q8 -9 8 -20q0 -4 -1 -9l-287 -1352q-4 -16 -18.5 -28.5t-30.5 -12.5h-113 q-16 0 -26.5 12.5t-6.5 28.5l121 573q4 20 -16 21h-451q-20 0 -24 -21l-121 -573q-4 -16 -18.5 -28.5t-30.5 -12.5h-113q-16 0 -26 12q-8 9 -8 20z" />
<glyph unicode="I" horiz-adv-x="448" d="M53 41l287 1352q4 16 18.5 28.5t30.5 12.5h113q16 0 26 -12q8 -9 8 -20q0 -4 -1 -9l-287 -1352q-4 -16 -19.5 -28.5t-31.5 -12.5h-113q-16 0 -26 12q-6 8 -6 17q0 6 1 12z" />
<glyph unicode="J" horiz-adv-x="980" d="M15 332q0 37 8 78l6 28q4 16 18 28.5t31 12.5h112q16 0 25.5 -12t5.5 -29l-6 -28q-5 -24 -5 -47t5 -45q10 -42 34.5 -72.5t63.5 -49t88 -18.5q76 0 127.5 24.5t85 63.5t52 87t28.5 98l201 942q4 16 19.5 28.5t31.5 12.5h113q16 0 25 -12q7 -9 7 -20q0 -4 -1 -9l-209 -983 q-20 -94 -56.5 -172t-94.5 -134.5t-139 -88t-190 -31.5q-90 0 -166.5 32.5t-130 91t-76.5 134.5q-13 43 -13 90z" />
<glyph unicode="K" horiz-adv-x="999" d="M52 32q0 5 1 9l287 1352q4 16 18.5 28.5t30.5 12.5h113q16 0 26.5 -12.5t6.5 -28.5l-97 -465q-2 -8 5.5 -8t11.5 4l477 489q6 6 16 13.5t33 7.5h129q29 0 38 -26q3 -8 3 -15q0 -18 -16 -33l-586 -590q-12 -12 -17.5 -23.5t5.5 -25.5l381 -645q12 -23 2.5 -49.5 t-50.5 -26.5h-114q-23 0 -30 7t-11 13l-332 570q-2 4 -8 4t-8 -8l-119 -545q-4 -16 -18.5 -28.5t-30.5 -12.5h-113q-16 0 -26 12q-8 9 -8 20z" />
<glyph unicode="L" horiz-adv-x="856" d="M53 41l287 1352q4 16 18.5 28.5t30.5 12.5h113q16 0 26.5 -12.5t6.5 -28.5l-250 -1178q-4 -20 14 -20h459q16 -1 26 -13q8 -9 8 -19q0 -4 -1 -9l-23 -113q-4 -16 -19.5 -28.5t-31.5 -12.5h-633q-16 0 -26 12q-6 8 -6 17q0 6 1 12z" />
<glyph unicode="M" horiz-adv-x="1425" d="M52 32q0 5 1 9l287 1352q4 16 18.5 28.5t30.5 12.5h201q35 0 37 -35l67 -1008q0 -10 8.5 -12t12.5 8l497 1012q16 35 50 35h217q17 0 27 -12q7 -8 7 -19q0 -5 -2 -10l-276 -1352q-4 -16 -18.5 -28.5t-30.5 -12.5h-109q-16 0 -26.5 12.5t-6.5 28.5l218 1024q2 10 -5.5 10 t-11.5 -6l-522 -1034q-18 -35 -49 -35h-86q-35 0 -37 35l-74 1034q0 6 -7 6t-9 -10l-217 -1024q-4 -16 -18.5 -28.5t-30.5 -12.5h-109q-16 0 -26 12q-8 9 -8 20z" />
<glyph unicode="N" horiz-adv-x="1114" d="M52 32q0 5 1 9l287 1352q4 16 18.5 28.5t30.5 12.5h170q16 0 24.5 -6.5t12.5 -28.5l182 -1034q2 -6 8.5 -5.5t8.5 9.5l219 1024q4 16 18.5 28.5t30.5 12.5h104q17 0 27 -12q7 -8 7 -18q0 -6 -1 -11l-287 -1352q-4 -16 -18 -28.5t-31 -12.5h-170q-31 0 -37 35l-184 1030 q-2 6 -8 5t-8 -9l-217 -1020q-4 -16 -18.5 -28.5t-31.5 -12.5h-104q-16 0 -26 12q-8 9 -8 20z" />
<glyph unicode="O" horiz-adv-x="1136" d="M110 357q0 26 3 53q6 61 18 142t28.5 166t37 165t41.5 141q29 84 69.5 161t102 136t144.5 94t198 35q92 0 170.5 -29.5t136 -85t85.5 -134.5q21 -61 21 -134q0 -21 -2 -43q-6 -61 -18 -142t-29.5 -165t-37 -165t-40.5 -142q-29 -84 -69.5 -162t-101 -136.5t-145.5 -93 t-198 -34.5q-92 0 -171 29.5t-136 85t-86 133.5q-21 57 -21 125zM306 387q0 -33 8 -64q12 -42 38.5 -74t69.5 -51.5t102 -19.5q119 0 197 60.5t119 171.5q23 63 44 143t38.5 164t30 164t16.5 143q1 12 1 23q0 33 -8 64q-12 42 -37.5 74t-68.5 51t-104 19q-117 0 -197 -59 t-119 -172q-20 -63 -40.5 -143t-39 -164t-31 -164t-18.5 -143q-1 -12 -1 -23z" />
<glyph unicode="P" horiz-adv-x="980" d="M53 41l287 1352q4 16 18.5 28.5t30.5 12.5h328q195 0 294 -93.5t99 -253.5q0 -92 -34 -184t-97.5 -164.5t-154.5 -119t-208 -46.5h-235q-23 0 -27 -20l-108 -512q-4 -16 -18.5 -28.5t-30.5 -12.5h-113q-16 0 -26 12q-6 8 -6 17q0 6 1 12zM405 782q0 -14 17 -14h194 q84 0 141.5 30.5t92.5 77t50 99.5t15 98q0 49 -15 81t-42 51.5t-63.5 26.5t-77.5 7h-195q-20 0 -24 -20l-92 -431q-1 -3 -1 -6z" />
<glyph unicode="Q" horiz-adv-x="1136" d="M110 357q0 26 3 53q6 61 18 142t28.5 166t37 165t41.5 141q29 84 71.5 161t105 136t147.5 94t200 35q92 0 170 -29.5t132 -85t80 -134.5q21 -61 21 -133q0 -21 -2 -44q-6 -61 -18 -142t-29.5 -165t-37 -165t-40.5 -142q-31 -96 -78.5 -181.5t-123.5 -144.5 q-8 -6 -12.5 -12t-0.5 -17l76 -182q10 -20 -4 -38.5t-41 -18.5h-98q-31 0 -45 30l-58 127q-8 18 -22.5 17.5t-30.5 -2.5q-18 -2 -36.5 -3t-39.5 -1q-92 0 -171 29.5t-136 85t-86 133.5q-21 57 -21 125zM306 387q0 -33 8 -64q12 -42 38.5 -74t69.5 -51.5t102 -19.5 q119 0 197 60.5t119 171.5q23 63 44 143t38.5 164t30 164t16.5 143q1 12 1 23q0 33 -8 64q-12 42 -37.5 74t-68.5 51t-104 19q-117 0 -197 -59t-119 -172q-20 -63 -40.5 -143t-39 -164t-31 -164t-18.5 -143q-1 -12 -1 -23z" />
<glyph unicode="R" horiz-adv-x="1030" d="M53 41l287 1352q4 16 18.5 28.5t30.5 12.5h328q195 0 294 -93.5t99 -255.5q0 -74 -22.5 -145.5t-64.5 -136t-102.5 -115.5t-136.5 -84q-33 -14 -47 -26.5t-2 -40.5l207 -476q10 -23 -5 -42t-46 -19h-100q-25 0 -34 11.5t-18 29.5l-217 508q-4 10 -10 17t-23 7h-108 q-23 0 -27 -20l-108 -512q-4 -16 -18.5 -28.5t-30.5 -12.5h-113q-16 0 -26 12q-6 8 -6 17q0 6 1 12zM405 782q0 -14 17 -14h194q84 0 141.5 30.5t92.5 77t50 102.5t15 107q0 45 -17 75t-45 47.5t-63.5 24.5t-72.5 7h-195q-20 0 -24 -20l-92 -431q-1 -3 -1 -6z" />
<glyph unicode="S" horiz-adv-x="1044" d="M65 330q0 39 9 80l6 32q4 16 19.5 28.5t31.5 12.5h115q16 0 25.5 -12t4.5 -29l-6 -32q-7 -29 -7 -55q1 -64 41 -111q56 -66 202 -66q59 0 113.5 20.5t95.5 56.5t64.5 84t23.5 103q0 35 -9.5 67t-33 58.5t-65.5 50t-107 44.5q-172 53 -255 145t-83 217q0 104 41 183 t108.5 133.5t155.5 82t180 27.5q98 0 172 -30.5t121 -83.5q48 -52 64 -122q8 -35 8 -73q0 -37 -8 -76l-7 -27q-4 -16 -18 -28.5t-31 -12.5h-112q-16 0 -26.5 12.5t-6.5 28.5l6 27q8 34 8 62q-1 57 -33 87q-48 46 -157 46q-51 0 -99.5 -13.5t-85 -40t-59 -67.5t-22.5 -95 q0 -47 22.5 -80.5t57 -57t74.5 -39t75 -27.5q160 -55 243 -140.5t83 -226.5q0 -111 -40 -202t-110 -154.5t-165 -98t-206 -34.5q-109 0 -192.5 33.5t-138 92t-76.5 135.5q-11 41 -11 85z" />
<glyph unicode="T" horiz-adv-x="868" d="M198 1271q0 4 1 9l24 113q4 16 18.5 28.5t30.5 12.5h779q16 0 26 -12q7 -9 7 -20q0 -4 -1 -9l-24 -113q-4 -16 -18.5 -28.5t-30.5 -12.5h-271q-20 0 -24 -20l-250 -1178q-4 -16 -19.5 -28.5t-31.5 -12.5h-113q-16 0 -25.5 12.5t-5.5 28.5l250 1178q4 20 -16 20h-273 q-16 1 -26 13q-7 9 -7 19z" />
<glyph unicode="U" horiz-adv-x="1142" d="M113 333q0 37 8 77l209 983q4 16 19.5 28.5t31.5 12.5h113q16 0 25 -12.5t5 -28.5l-207 -963q-7 -35 -7 -64q0 -28 6 -52q14 -48 46.5 -78.5t77.5 -44t92 -13.5q70 0 124.5 20.5t93 56.5t63.5 81t35 94l209 963q4 16 19.5 28.5t31.5 12.5h113q16 0 25 -12q6 -9 6 -19 q0 -5 -1 -10l-209 -983q-18 -92 -62 -170t-109.5 -135.5t-150.5 -89t-188 -31.5q-98 0 -182 31.5t-141 89t-82 135.5q-14 44 -14 93z" />
<glyph unicode="V" horiz-adv-x="1026" d="M229 1384q-2 16 11.5 33t38.5 17h114q31 0 33 -31l53 -1092q0 -12 10 -12h5q8 0 14 12l516 1092q14 31 45 31h133q25 0 32 -16q3 -6 3 -13q0 -9 -6 -19l-670 -1355q-16 -31 -45 -31h-160q-31 0 -32 31z" />
<glyph unicode="W" horiz-adv-x="1492" d="M238 31l16 1362q0 16 12.5 28.5t36.5 12.5h105q33 0 32 -31l-22 -1041q0 -12 10 -12h4q8 0 14 12l390 1041q12 31 45 31h170q33 0 32 -31l-30 -1041q0 -12 10 -12h4q8 0 14 12l400 1041q6 16 18 23.5t27 7.5h110q25 0 32 -12q4 -7 4 -15q0 -7 -3 -14l-547 -1362 q-12 -31 -45 -31h-174q-33 0 -33 31l29 1022q0 8 -6 8t-10 -8l-394 -1022q-12 -31 -45 -31h-174q-33 0 -32 31z" />
<glyph unicode="X" horiz-adv-x="1021" d="M-37 31q0 12 10 26l496 684q12 18 8 29l-213 606q-8 23 7.5 40.5t37.5 17.5h119q25 0 35 -31l158 -445q6 -16 16 0l326 445q23 31 49 31h133q23 0 32 -18q3 -6 3 -12q0 -13 -11 -28l-450 -606q-10 -12 -4 -29l258 -684q8 -23 -5.5 -40t-37.5 -17h-127q-27 0 -39 31 l-189 508q-6 16 -16 0l-360 -508q-23 -31 -49 -31h-154q-20 0 -30 18q-4 7 -3 13z" />
<glyph unicode="Y" horiz-adv-x="917" d="M208 1386q0 17 11 30q14 18 35 18h119q27 0 33 -31l122 -635q2 -8 7.5 -9t9.5 7l362 637q16 31 45 31h140q20 0 30 -18q5 -7 5 -15q0 -11 -9 -25l-530 -882l-96 -453q-4 -16 -18.5 -28.5t-31.5 -12.5h-114q-16 0 -26.5 12.5t-6.5 28.5l96 451l-182 884q-1 5 -1 10z" />
<glyph unicode="Z" horiz-adv-x="983" d="M-8 41l26 131q2 16 17 33l796 1020q6 8 4.5 14t-12.5 6h-514q-16 0 -26.5 12.5t-6.5 28.5l23 107q4 16 18.5 28.5t30.5 12.5h717q17 0 27 -12q7 -8 7 -18v-2q0 -4 -1 -9l-31 -148q-2 -10 -7 -17t-11 -16l-785 -1001q-6 -8 -4 -14.5t12 -6.5h600q16 0 26.5 -12t6.5 -28 l-22 -109q-4 -16 -18.5 -28.5t-30.5 -12.5h-809q-17 0 -27 12q-7 8 -7 18q0 7 1 11z" />
<glyph unicode="[" horiz-adv-x="598" d="M37 -143l334 1577q4 16 19.5 28.5t31.5 12.5h348q16 0 25.5 -12.5t5.5 -28.5l-21 -97q-4 -16 -18 -28.5t-31 -12.5h-190q-20 0 -25 -20l-268 -1262q-4 -20 16 -20h195q16 0 26.5 -12.5t6.5 -28.5l-21 -96q-4 -16 -19.5 -28.5t-31.5 -12.5h-352q-16 0 -25.5 12t-5.5 29z " />
<glyph unicode="\" horiz-adv-x="937" d="M334 1397q-4 23 10 40t35 17h96q27 0 33 -31l250 -1390q4 -23 -10.5 -40.5t-34.5 -17.5h-97q-31 0 -36 31z" />
<glyph unicode="]" horiz-adv-x="598" d="M-86 -143l20 96q4 16 18.5 28.5t31.5 12.5h194q20 0 25 20l268 1262q4 20 -16 20h-191q-16 0 -26.5 12.5t-6.5 28.5l21 97q4 16 19.5 28.5t31.5 12.5h348q16 0 25.5 -12.5t5.5 -28.5l-334 -1577q-4 -16 -19.5 -28.5t-31.5 -12.5h-352q-16 0 -25.5 12t-5.5 29z" />
<glyph unicode="^" horiz-adv-x="1040" d="M373 1214.5q-2 16.5 8 26.5l270 229q10 10 24.5 17.5t43.5 7.5h86q27 0 36 -7t17 -18l172 -229q8 -10 -1 -26.5t-30 -16.5h-110q-23 0 -36 11.5t-22 21.5l-81 100q-12 14 -29 0l-125 -100q-10 -10 -28.5 -21.5t-41.5 -11.5h-131q-20 0 -22 16.5z" />
<glyph unicode="_" horiz-adv-x="1249" d="M-59 -113l14 72q4 16 19.5 28.5t31.5 12.5h1086q16 0 25 -12.5t5 -28.5l-14 -72q-4 -16 -18.5 -28.5t-30.5 -12.5h-1086q-16 0 -26 12.5t-6 28.5z" />
<glyph unicode="`" horiz-adv-x="608" d="M340 1452q-8 10 2 26.5t31 16.5h162q23 0 31.5 -11t13.5 -22l108 -223q6 -10 -5 -25.5t-32 -15.5h-82q-29 0 -39 7t-18 18z" />
<glyph unicode="a" horiz-adv-x="1036" d="M88 381q0 123 38 240.5t106.5 212t166 151.5t215.5 57q86 0 136.5 -29.5t76.5 -64.5q8 -10 14.5 -18t16.5 -8q12 0 21 16l26 66q4 12 14.5 16t20.5 4h76q16 0 26 -12q8 -9 8 -20q0 -4 -1 -9l-203 -942q-4 -16 -18.5 -28.5t-30.5 -12.5h-64q-18 0 -28 14q-4 6 -4.5 17.5 t-0.5 23t-2 19.5t-10 8q-12 0 -29.5 -16.5t-46 -35t-70.5 -34.5t-104 -16q-78 0 -142.5 29.5t-110.5 81.5t-71.5 126t-25.5 164zM276 381q0 -35 7.5 -73t28 -70.5t56 -53t93.5 -20.5q45 0 96 17.5t97 63.5t83.5 128t57.5 213q6 42 6 78q0 78 -29 126q-43 70 -154 70 q-76 0 -139 -39t-108 -105.5t-70 -153.5t-25 -181z" />
<glyph unicode="b" horiz-adv-x="1032" d="M52 32q0 5 1 9l289 1366q4 16 18.5 28.5t30.5 12.5h103q16 0 26 -12.5t6 -28.5l-77 -371q-4 -25 4 -34t24 -9q14 0 29.5 8.5t37 17.5t51.5 17t73 8q84 0 150.5 -32.5t111.5 -85.5q44 -54 64 -124q13 -47 14 -96q0 -25 -4 -51q-8 -61 -23.5 -143t-36.5 -143 q-25 -74 -59.5 -143.5t-89 -124t-132.5 -88t-184 -33.5q-57 0 -92 10t-59.5 23.5t-43 23.5t-40.5 10q-20 0 -33.5 -11t-24.5 -22q-12 -14 -30 -14h-70q-16 0 -26 12q-8 9 -8 20zM287 341q0 -65 39 -115q47 -62 153 -62q113 0 182.5 61.5t92.5 143.5q18 63 36.5 143t28.5 143 q2 14 2 28q0 65 -39 115q-47 62 -153 62q-113 0 -182.5 -61.5t-92.5 -143.5q-18 -63 -36.5 -143t-28.5 -143q-2 -14 -2 -28z" />
<glyph unicode="c" horiz-adv-x="978" d="M92 314q0 27 4 55q8 61 23.5 143t36.5 143q25 74 59.5 143.5t88.5 124t131 88t186 33.5q90 0 160.5 -26.5t118.5 -73.5q48 -46 68 -110q14 -43 14 -91q0 -23 -3 -47q-4 -16 -15.5 -28.5t-27.5 -12.5h-111q-14 0 -25.5 8.5t-6.5 24.5q5 18 5 35q0 15 -4 29 q-8 32 -30.5 55.5t-59 38t-83.5 14.5q-59 0 -105.5 -16.5t-80.5 -45t-55.5 -65.5t-33.5 -78q-18 -63 -36.5 -143t-28.5 -143q-2 -14 -2 -28q0 -65 39 -115q47 -62 153 -62q98 0 161 46t83 124q4 20 18.5 27.5t28.5 7.5h106q16 0 26.5 -12.5t6.5 -28.5q-12 -61 -45 -124 t-86 -113t-128 -80.5t-171 -30.5q-92 0 -167 30.5t-125 82.5q-51 52 -73 124q-14 44 -14 91v6z" />
<glyph unicode="d" horiz-adv-x="1052" d="M92 314q0 27 4 55q8 61 24.5 143t35.5 143q20 68 55 136.5t90 125t133 92t187 35.5q43 0 74.5 -9t56 -20t43 -20.5t34.5 -9.5q29 0 39 39l86 383q4 16 18.5 28.5t31.5 12.5h102q16 0 26 -12q8 -9 8 -20q0 -4 -1 -9l-293 -1366q-4 -16 -18.5 -28.5t-30.5 -12.5h-70 q-20 0 -27 14q-6 12 -14 22.5t-31 10.5q-20 0 -39.5 -10t-44 -23.5t-58.5 -23.5t-83 -10q-78 0 -143.5 30.5t-111.5 82.5q-47 52 -69 124q-14 44 -14 91v6zM279 341q0 -65 39 -115q47 -62 153 -62q113 0 182.5 61.5t91.5 143.5q18 63 37 143t29 143q2 14 2 28q0 65 -39 115 q-47 62 -153 62q-113 0 -182.5 -61.5t-92.5 -143.5q-18 -63 -36.5 -143t-28.5 -143q-2 -14 -2 -28z" />
<glyph unicode="e" horiz-adv-x="1015" d="M94 324q0 22 2 45q6 61 24.5 143t37.5 143q23 80 65.5 152t103 124t135.5 82.5t161 30.5q111 0 186.5 -34.5t118.5 -91t55 -130.5q5 -29 5 -59v-10q0 -41 -7 -84l-29 -141q-4 -16 -19 -28.5t-32 -12.5h-586q-18 0 -24 -21q-15 -57 -15 -102q0 -60 27 -98q47 -68 170 -68 q80 0 143.5 36t94.5 93q10 20 25.5 27.5t29.5 7.5h104q16 0 24.5 -9.5t0.5 -31.5q-25 -70 -69 -126.5t-101 -96t-122.5 -62t-131.5 -22.5q-88 0 -160.5 26.5t-122.5 75.5q-52 50 -76 122q-18 55 -18 120zM339 630q0 -14 15 -14h426q23 0 27 21q9 38 9 70q0 55 -28 93 q-44 60 -165 60q-53 0 -100.5 -17.5t-84.5 -48t-62.5 -71.5t-35.5 -86q-1 -4 -1 -7z" />
<glyph unicode="f" horiz-adv-x="673" d="M91 861q0 5 1 9l21 103q4 16 19 28.5t32 12.5h153q20 0 25 20l6 31q20 104 54 178t88.5 119t132 65.5t186.5 20.5h20q16 0 27 -12q7 -10 7 -20q0 -5 -1 -9l-20 -96q-4 -16 -19.5 -28.5t-31.5 -12.5h-21q-70 0 -112 -12.5t-66.5 -37t-36.5 -63.5t-23 -92l-6 -31 q-4 -20 17 -20h209q16 0 25 -12.5t5 -28.5l-20 -103q-4 -16 -18.5 -28.5t-30.5 -12.5h-209q-23 0 -27 -20l-162 -768q-4 -16 -19 -28.5t-32 -12.5h-102q-16 0 -25.5 12.5t-5.5 28.5l162 768q4 20 -14 20h-154q-16 0 -27 13q-7 9 -7 19z" />
<glyph unicode="g" horiz-adv-x="1032" d="M47 -150q0 47 47 48h99q29 0 34.5 -10.5t10.5 -30.5q8 -57 46 -80t115 -23q39 0 76 13.5t68.5 37t54.5 57.5t31 77l10 49q2 8 2 15q0 28 -33 28q-12 0 -30.5 -8.5t-42 -17.5t-51 -17t-60.5 -8q-78 0 -143.5 30.5t-111.5 82.5t-69 124q-14 47 -14 97q0 27 4 55 q8 61 23.5 143t36.5 143q25 74 59.5 143.5t88.5 124t130.5 88t185.5 33.5q57 0 92 -10t58.5 -23.5t41 -23.5t40.5 -10q16 0 28.5 11t22.5 22q8 6 14.5 10t16.5 4h76q16 0 26 -12q7 -9 7 -20q0 -4 -1 -9l-223 -1044q-23 -100 -64.5 -171t-98 -115t-121 -63.5t-130.5 -19.5 q-170 0 -259 77t-93 203zM272 341q0 -65 39 -115q47 -62 154 -62q113 0 182 61.5t92 143.5q18 63 37 143t29 143q2 14 2 28q0 65 -39 115q-47 62 -154 62q-113 0 -182.5 -61.5t-91.5 -143.5q-18 -63 -36.5 -143t-29.5 -143q-2 -14 -2 -28z" />
<glyph unicode="h" horiz-adv-x="1042" d="M52 32q0 5 1 9l291 1366q4 16 18.5 28.5t30.5 12.5h103q16 0 26 -12.5t6 -28.5l-82 -383q-4 -14 5.5 -28.5t31.5 -14.5q14 0 33 10t43.5 21.5t54 21.5t70.5 10q96 0 162.5 -30.5t104.5 -82.5q37 -52 47 -124q3 -26 4 -53q0 -48 -11 -99l-131 -614q-4 -16 -18.5 -28.5 t-30.5 -12.5h-102q-16 0 -26.5 12.5t-6.5 28.5l131 614q6 28 6 52q0 57 -32 97q-46 56 -150 56q-47 0 -91 -15.5t-79 -42t-58.5 -62t-31.5 -74.5l-133 -625q-4 -16 -18.5 -28.5t-31.5 -12.5h-102q-16 0 -26 12q-8 9 -8 20z" />
<glyph unicode="i" horiz-adv-x="452" d="M53 41l199 942q4 16 19.5 28.5t31.5 12.5h107q16 0 25 -12.5t5 -28.5l-198 -942q-4 -16 -19.5 -28.5t-32.5 -12.5h-106q-16 0 -26 12q-6 8 -6 17q0 6 1 12zM303 1262q0 6 2 12l29 141q4 12 15 22.5t26 10.5h139q14 0 22 -10q4 -6 4 -12t-1 -11l-29 -141q-8 -33 -41 -33 h-139q-27 0 -27 21z" />
<glyph unicode="j" horiz-adv-x="477" d="M-347 -392q0 5 1 9l22 102q4 16 18.5 28.5t31.5 12.5h104q92 0 148.5 46.5t74.5 132.5l223 1044q4 16 18.5 28.5t31.5 12.5h108q16 0 26.5 -12.5t6.5 -28.5l-223 -1044q-43 -201 -159 -282t-294 -81h-104q-16 0 -27 12q-7 10 -7 20zM330 1261q0 6 2 13l28 141 q4 12 15.5 22.5t25.5 10.5h140q14 0 21 -10q4 -7 4 -14q0 -5 -1 -9l-28 -141q-8 -33 -41 -33h-140q-26 0 -26 20z" />
<glyph unicode="k" horiz-adv-x="874" d="M52 32q0 5 1 9l291 1366q4 16 18.5 28.5t30.5 12.5h103q16 0 26 -12.5t6 -28.5l-145 -690q-2 -8 3 -9t11 5l332 284q10 8 22.5 17.5t34.5 9.5h125q20 0 30.5 -8t13.5 -18q1 -4 1 -8q0 -7 -3 -14q-5 -11 -13 -20l-475 -393q-31 -25 -10 -49l333 -446q16 -20 4 -44t-40 -24 h-107q-23 0 -37 11.5t-18 19.5l-260 358q-4 4 -10.5 4t-8.5 -8l-73 -344q-4 -16 -18.5 -28.5t-31.5 -12.5h-102q-16 0 -26 12q-8 9 -8 20z" />
<glyph unicode="l" horiz-adv-x="440" d="M53 41l289 1366q4 16 19.5 28.5t31.5 12.5h103q16 0 25 -12q6 -9 6 -19q0 -5 -1 -10l-288 -1366q-4 -16 -19.5 -28.5t-32.5 -12.5h-102q-16 0 -26 12q-6 8 -6 17q0 6 1 12z" />
<glyph unicode="m" horiz-adv-x="1572" d="M53 41l199 942q4 16 19.5 28.5t31.5 12.5h86q29 0 31 -20q2 -14 11 -25.5t28 -11.5q20 0 39.5 12t44 26.5t56.5 26.5t77 12q51 0 88 -10t62.5 -25.5t43 -31.5t31.5 -31q20 -18 37.5 -19t42.5 19q18 14 40.5 30.5t52.5 32t67 25.5t82 10q88 0 151.5 -30.5t102.5 -82.5 t50 -124q4 -29 4 -60q0 -45 -9 -92l-129 -614q-4 -16 -19.5 -28.5t-32.5 -12.5h-102q-16 0 -25.5 12.5t-5.5 28.5l129 614q6 31 6 62v15q-2 38 -19 65.5t-51 45t-89 17.5q-51 0 -92 -17.5t-71 -45t-48.5 -62.5t-26.5 -69l-131 -625q-4 -16 -19.5 -28.5t-31.5 -12.5h-100 q-16 0 -25.5 12.5t-5.5 28.5l129 614q6 31 6 62v15q-2 38 -19.5 65.5t-50 45t-88.5 17.5q-51 0 -92 -17.5t-71.5 -45t-50 -62.5t-27.5 -69l-131 -625q-4 -16 -19.5 -28.5t-32.5 -12.5h-102q-16 0 -26 12q-6 8 -6 17q0 6 1 12z" />
<glyph unicode="n" horiz-adv-x="1052" d="M53 41l199 942q4 16 19.5 28.5t31.5 12.5h86q27 0 31 -20q4 -14 12 -25.5t27 -11.5q23 0 46 12t51 26.5t62.5 26.5t77.5 12q84 0 149.5 -28.5t105.5 -80.5q41 -52 55 -124q6 -31 6 -65q0 -44 -11 -91l-129 -614q-4 -16 -19 -28.5t-32 -12.5h-102q-16 0 -25.5 12.5 t-5.5 28.5l129 614q6 29 6 54q-1 53 -27 93q-38 58 -149 58q-47 0 -93 -13t-84 -39t-65.5 -61.5t-35.5 -80.5l-131 -625q-4 -16 -19.5 -28.5t-32.5 -12.5h-102q-16 0 -26 12q-6 8 -6 17q0 6 1 12z" />
<glyph unicode="o" d="M92 314q0 27 4 55q8 61 23.5 143t36.5 143q25 74 57.5 143.5t85.5 124t131 88t191 33.5q92 0 166.5 -30.5t124.5 -82.5q52 -52 74 -124q14 -46 14 -94q0 -28 -5 -58q-8 -61 -24.5 -143t-34.5 -143q-20 -68 -55 -136.5t-90.5 -125t-134 -92t-185.5 -35.5q-92 0 -167 30.5 t-125 82.5q-51 52 -73 124q-14 44 -14 91v6zM279 341q0 -65 39 -115q47 -62 153 -62q113 0 182.5 61.5t91.5 143.5q18 63 37 143t29 143q2 14 2 28q0 65 -39 115q-47 62 -153 62q-113 0 -182.5 -61.5t-92.5 -143.5q-18 -63 -36.5 -143t-28.5 -143q-2 -14 -2 -28z" />
<glyph unicode="p" horiz-adv-x="1038" d="M-30 -378q0 4 1 9l289 1352q4 16 18.5 28.5t30.5 12.5h70q18 0 27 -14q6 -12 14 -22.5t31 -10.5q20 0 39.5 10t44 23.5t58.5 23.5t83 10q76 0 142.5 -30.5t112.5 -82.5t69 -124q14 -47 14 -97q0 -27 -4 -55q-8 -61 -24.5 -143t-35.5 -143q-20 -68 -55 -136.5t-90 -125 t-134 -92t-186 -35.5q-39 0 -69.5 9t-54 20t-43 20.5t-33.5 9.5q-23 0 -33 -12.5t-14 -26.5l-82 -369q-10 -41 -50 -41h-102q-18 0 -28 12q-6 9 -6 20zM293 341q0 -65 39 -115q47 -62 153 -62q113 0 182.5 61.5t92.5 143.5q18 63 36.5 143t28.5 143q2 14 2 28q0 65 -39 115 q-47 62 -153 62q-113 0 -182.5 -61.5t-92.5 -143.5q-18 -63 -36.5 -143t-28.5 -143q-2 -14 -2 -28z" />
<glyph unicode="q" horiz-adv-x="1042" d="M93 318q0 25 3 51q8 61 23.5 143t36.5 143q25 74 59.5 143.5t88.5 124t131 88t186 33.5q57 0 92 -10t59.5 -23.5t43 -23.5t40.5 -10q20 0 33.5 11t23.5 22q12 14 31 14h70q16 0 26 -12q8 -10 8 -20q0 -5 -1 -9l-289 -1366q-4 -16 -18.5 -28.5t-30.5 -12.5h-103 q-16 0 -26.5 12.5t-6.5 28.5l78 371q4 25 -4 34t-24 9q-14 0 -29.5 -8.5t-37 -17.5t-51.5 -17t-73 -8q-84 0 -150.5 32.5t-111.5 86t-64 123.5q-13 47 -13 96zM279 341q0 -65 39 -115q47 -62 153 -62q113 0 182 61.5t92 143.5q18 63 37 143t29 143q2 14 2 28q0 65 -39 115 q-47 62 -153 62q-113 0 -182.5 -61.5t-92.5 -143.5q-18 -63 -36.5 -143t-28.5 -143q-2 -14 -2 -28z" />
<glyph unicode="r" horiz-adv-x="704" d="M53 41l199 942q4 16 19.5 28.5t31.5 12.5h70q31 0 30 -41v-46t23 -26q18 0 35.5 17.5t49.5 39t88 39t155 17.5h41q16 0 25 -12q6 -9 6 -19q0 -5 -1 -10l-20 -100q-4 -16 -18.5 -28.5t-30.5 -12.5h-41q-154 0 -246 -70t-127 -240l-104 -491q-4 -16 -19.5 -28.5 t-32.5 -12.5h-102q-16 0 -26 12q-6 8 -6 17q0 6 1 12z" />
<glyph unicode="s" horiz-adv-x="940" d="M55 284q0 24 4 50q4 16 18.5 28.5t31.5 12.5h106q16 0 26.5 -12.5t6.5 -28.5q-3 -16 -3 -30q0 -25 9 -47q14 -34 42 -56.5t65.5 -33.5t76.5 -11q113 0 175.5 43t62.5 129q0 39 -26.5 63.5t-66.5 41t-87 27.5t-86 23q-119 35 -174.5 100.5t-55.5 164.5q0 61 30 115.5 t82 94t124.5 63t156.5 23.5t154 -23.5t116 -64.5q47 -41 67 -97q11 -30 11 -62v-6q0 -26 -6 -54q-4 -16 -18 -28.5t-31 -12.5h-102q-16 0 -26.5 12.5t-6.5 28.5q3 15 3 29q0 48 -39 74q-50 32 -122 32q-98 0 -149 -35.5t-51 -88.5q0 -39 28.5 -61.5t69.5 -38t87 -25 t83 -21.5q115 -35 171 -101.5t56 -172.5q0 -74 -30.5 -138.5t-88 -110.5t-136 -72.5t-175.5 -26.5q-94 0 -169.5 27.5t-126.5 75.5q-50 49 -72 113q-15 42 -15 88z" />
<glyph unicode="t" horiz-adv-x="727" d="M103 861q0 4 1 9l21 103q4 16 19.5 28.5t31.5 12.5h143q18 0 25 20l68 318q4 16 18 28.5t31 12.5h102q16 0 26.5 -12.5t6.5 -28.5l-68 -318q-6 -20 17 -20h235q16 0 26 -12q6 -8 6 -17q0 -6 -1 -12l-20 -103q-4 -16 -19.5 -28.5t-32.5 -12.5h-235q-18 0 -25 -20 l-102 -481q-6 -31 -6 -59q0 -38 17 -58q28 -33 122 -33h113q16 0 26 -12t6 -29l-20 -96q-4 -16 -19.5 -28.5t-31.5 -12.5h-113q-159 0 -237 76q-52 51 -53 149q0 46 12 103l102 481q6 20 -16 20h-144q-15 1 -25 13q-7 9 -7 19z" />
<glyph unicode="u" horiz-adv-x="1054" d="M104 278q0 44 11 91l129 614q4 16 19.5 28.5t31.5 12.5h102q16 0 25.5 -12.5t5.5 -28.5l-129 -614q-6 -29 -6 -54q1 -53 27 -93q38 -58 149 -58q47 0 93 13t84 39t64.5 61.5t37.5 80.5l131 625q4 16 19 28.5t32 12.5h102q16 0 26 -12q6 -8 6 -17q0 -6 -1 -12l-199 -942 q-4 -16 -19.5 -28.5t-31.5 -12.5h-86q-27 0 -31 20q-4 12 -14 24.5t-29 12.5q-23 0 -45 -12t-50 -26.5t-61.5 -26.5t-76.5 -12q-84 0 -149.5 28.5t-106 80.5t-54.5 124q-6 31 -6 65z" />
<glyph unicode="v" horiz-adv-x="962" d="M155 984q0 12 11 24q14 16 39 16h112q27 0 33 -31l101 -682q2 -10 12 -10t16 10l385 682q16 31 45 31h131q25 0 32 -16q3 -6 3 -12q0 -9 -6 -19l-561 -946q-18 -31 -45 -31h-113q-27 0 -33 31l-161 946q-1 4 -1 7z" />
<glyph unicode="w" horiz-adv-x="1368" d="M164 977q-2 16 11 31.5t38 15.5h102q33 0 33 -31l17 -663q0 -12 10 -12.5t16 12.5l322 663q14 31 45 31h121q31 0 32 -31l39 -663q0 -12 10.5 -12.5t16.5 12.5l299 663q14 31 45 31h117q25 0 31 -16q2 -6 2 -12q0 -9 -5 -19l-467 -946q-16 -31 -45 -31h-112q-31 0 -33 31 l-43 676q0 6 -6 6t-10 -6l-330 -676q-16 -31 -45 -31h-113q-31 0 -33 31z" />
<glyph unicode="x" horiz-adv-x="946" d="M-18 29q0 17 18 39l391 469q12 16 8 26l-196 393q-12 25 0 46.5t47 21.5h98q23 0 30 -6t11 -14l139 -287q6 -12 17 0l239 287q6 8 16.5 14t33.5 6h124q29 0 35 -22q1 -5 1 -9q0 -17 -17 -37l-344 -403q-10 -12 -4 -27l235 -458q12 -25 -3 -46.5t-44 -21.5h-106 q-23 0 -30 6t-11 14l-168 349q-6 12 -17 0l-286 -349q-6 -8 -16.5 -14t-32.5 -6h-132q-29 0 -35 20q-1 4 -1 9z" />
<glyph unicode="y" horiz-adv-x="946" d="M-83 -378q0 5 1 9l23 97q4 16 18 28.5t31 12.5h33q63 0 116.5 52t89.5 118l68 116q10 16 8 27l-158 895q-4 16 10.5 31.5t39.5 15.5h114q27 0 33 -31l111 -665q2 -8 7 -9.5t9 9.5l379 665q16 31 45 31h131q25 0 32 -16q3 -6 3 -12q0 -10 -6 -19l-670 -1120 q-35 -59 -73 -108.5t-85 -84.5t-108.5 -54.5t-145.5 -19.5h-22q-16 0 -27 12q-7 10 -7 20z" />
<glyph unicode="z" horiz-adv-x="942" d="M-6 41l24 121q4 20 11.5 30.5t29.5 32.5l623 602q8 8 6 14.5t-12 6.5h-451q-16 0 -25.5 12t-4.5 29l20 94q4 16 18.5 28.5t30.5 12.5h676q16 0 26 -12q8 -9 8 -20q0 -4 -1 -9l-27 -117q-6 -29 -23.5 -48t-33.5 -36l-604 -585q-8 -8 -6 -14.5t12 -6.5h520q16 0 26.5 -12 t6.5 -29l-21 -94q-4 -16 -18 -28.5t-31 -12.5h-747q-17 0 -27 12q-7 8 -7 18q0 7 1 11z" />
<glyph unicode="{" horiz-adv-x="708" d="M135 614l19 82q4 16 18 25.5t31 15.5l24 11q16 6 28.5 15t16.5 25l56 256q18 84 59 162t103.5 137.5t144.5 95.5t184 36h45q16 0 25.5 -12.5t5.5 -28.5l-21 -99q-4 -16 -18 -28.5t-31 -12.5h-24q-100 0 -182 -67.5t-107 -182.5l-55 -256q-6 -27 -19.5 -48t-31 -38.5 t-34 -28.5t-26.5 -18q8 -6 20.5 -18t21.5 -28.5t14.5 -38t-1.5 -48.5l-59 -276q-25 -115 28.5 -182.5t153.5 -67.5h45q16 0 26.5 -12.5t6.5 -28.5l-20 -98q-4 -16 -19.5 -28.5t-32.5 -12.5h-22q-102 0 -176 35.5t-119 95t-59.5 137.5t4.5 162l59 276q4 16 -6 25.5t-23 15.5 l-20 10q-14 6 -25.5 15.5t-7.5 25.5z" />
<glyph unicode="|" horiz-adv-x="460" d="M45 -102l326 1536q4 16 19.5 28.5t31.5 12.5h92q16 0 25.5 -12.5t5.5 -28.5l-326 -1536q-4 -16 -18.5 -28.5t-30.5 -12.5h-92q-16 0 -26.5 12t-6.5 29z" />
<glyph unicode="}" horiz-adv-x="708" d="M-86 -143l20 98q4 16 18.5 28.5t31.5 12.5h45q100 0 182 67.5t106 182.5l60 276q6 27 19.5 48.5t30.5 38t33.5 28.5t28.5 18q-18 12 -42.5 46t-14.5 87l55 256q25 115 -28 182.5t-154 67.5h-24q-16 0 -26.5 12.5t-6.5 28.5l20 99q4 16 19.5 28.5t31.5 12.5h9 q100 0 173.5 -36t117 -95.5t57.5 -137.5t-4 -162l-56 -256q-4 -16 6.5 -25t22.5 -15l21 -11q14 -6 25 -15t7 -26l-18 -82q-4 -16 -18.5 -25t-30.5 -16l-25 -10q-16 -6 -28.5 -15t-16.5 -26l-59 -276q-18 -84 -59.5 -162t-104 -137.5t-145 -95t-183.5 -35.5h-65 q-16 0 -25.5 12t-5.5 29z" />
<glyph unicode="~" horiz-adv-x="1138" d="M125 446l20 103q6 27 25.5 50.5t48.5 39.5t64.5 25.5t74.5 9.5q80 0 129.5 -14.5t92.5 -32t93 -31.5t134 -14q35 0 75 15t62 38q20 20 41 16t14 -35l-20 -102q-6 -29 -25.5 -51.5t-48 -38.5t-64.5 -25.5t-75 -9.5q-80 0 -129 14.5t-92 32t-94.5 31.5t-133.5 14 q-35 0 -74.5 -15t-62.5 -38q-20 -20 -40.5 -16t-14.5 34z" />
<glyph unicode="&#xa1;" horiz-adv-x="538" d="M29 -369l204 963q4 16 18.5 28.5t31.5 12.5h114q16 0 26.5 -12.5t6.5 -28.5l-205 -963q-4 -16 -18 -28.5t-31 -12.5h-115q-16 0 -26 12.5t-6 28.5zM252 813l35 170q4 16 18 28.5t31 12.5h170q16 0 26.5 -12.5t6.5 -28.5l-35 -170q-4 -16 -19.5 -28.5t-31.5 -12.5h-170 q-16 0 -25.5 12.5t-5.5 28.5z" />
<glyph unicode="&#xa2;" horiz-adv-x="978" d="M94 369q10 61 25.5 143t34.5 143q45 154 137 249t250 130q27 6 28 21l15 71q4 16 19 28.5t32 12.5h92q16 0 25.5 -12t5.5 -29l-15 -73q-1 -15 15 -21q61 -16 108 -50t77 -79t39 -98t-3 -109q-4 -16 -15.5 -28.5t-27.5 -12.5h-111q-14 0 -25.5 8.5t-6.5 24.5 q16 72 -24 122t-151 50q-106 0 -177.5 -56t-100.5 -149q-20 -63 -35.5 -143t-25.5 -143q-10 -82 38 -143.5t154 -61.5q94 0 160.5 49t83.5 121q4 20 18.5 27.5t28.5 7.5h106q16 0 26.5 -12.5t6.5 -28.5q-29 -127 -116 -218.5t-234 -119.5q-25 -6 -27 -21l-14 -71 q-4 -16 -19.5 -28.5t-31.5 -12.5h-92q-16 0 -25.5 12t-5.5 29l16 73q2 14 -16 21q-55 14 -104.5 47t-83 81t-49 110.5t-5.5 138.5z" />
<glyph unicode="&#xa3;" horiz-adv-x="1075" d="M-61 41l24 113q4 16 17.5 28.5t29.5 12.5h10q61 0 118 62t79 173l39 184q2 10 -2 17.5t-14 7.5h-117q-16 0 -25.5 12.5t-5.5 28.5l23 104q4 16 18 28.5t31 12.5h117q20 0 24 21l55 260q39 180 146.5 264t253.5 84q72 0 132 -27.5t101 -74.5t58.5 -110.5t3.5 -135.5 l-4 -21q-4 -16 -18.5 -28.5t-31.5 -12.5h-110q-16 0 -26.5 12.5t-6.5 28.5l4 21q14 66 -21.5 110t-101.5 44t-118 -44.5t-66 -109.5l-55 -260q-4 -20 16 -21h279q16 0 26 -12t6 -29l-22 -104q-4 -16 -19.5 -28.5t-31.5 -12.5h-279q-10 0 -16 -7t-8 -18l-39 -184 q-6 -29 -15.5 -60.5t-22 -61t-26.5 -56.5t-33 -41q-8 -6 -7 -11t11 -5h521q16 0 26.5 -12.5t5.5 -28.5l-24 -113q-4 -16 -18.5 -28.5t-30.5 -12.5h-826q-18 0 -28.5 12.5t-5.5 28.5z" />
<glyph unicode="&#xa4;" horiz-adv-x="1251" d="M53 206.5q2 16.5 19 29.5l186 153q-16 35 -23.5 71t-7.5 87q0 86 35 168t92 151l-114 150q-10 12 -6 28.5t18 28.5l92 76q14 10 30.5 11t26.5 -11l115 -148q59 35 125 53.5t133 18.5q66 0 122 -18.5t101 -53.5l185 150q33 27 55 -2l59 -76q10 -10 8.5 -26.5t-18.5 -28.5 l-182 -150q29 -74 29 -151q0 -92 -37 -173t-99 -155l121 -151q10 -12 6 -28.5t-18 -29.5l-92 -76q-14 -10 -30.5 -11t-27.5 11l-120 152q-59 -33 -122 -50.5t-128 -17.5q-127 0 -224 68l-186 -154q-33 -27 -55 2l-60 76q-10 10 -8 26.5zM416 575q0 -94 57.5 -148t151.5 -54 q57 0 114.5 23.5t103.5 64.5t73.5 98t27.5 123q0 90 -57.5 148.5t-151.5 58.5q-59 0 -116.5 -24.5t-102.5 -67.5t-72.5 -100.5t-27.5 -121.5z" />
<glyph unicode="&#xa5;" horiz-adv-x="937" d="M82 506l20 96q4 16 18.5 28.5t31.5 12.5h188q10 0 16 7t2 18l-12 61q-4 10 -16 10h-158q-16 0 -26.5 12.5t-6.5 28.5l21 97q4 16 18.5 28.5t30.5 12.5h80q10 0 16 7t4 17l-78 434q-4 23 10.5 40.5t34.5 17.5h130q27 0 32 -31l97 -637q2 -8 7 -8t9 8l362 637q16 31 45 31 h142q20 0 27.5 -17.5t-7.5 -40.5l-260 -434q-4 -10 -3 -17t11 -7h78q16 0 26.5 -12.5t6.5 -28.5l-21 -97q-4 -16 -18 -28.5t-31 -12.5h-155q-16 0 -21 -10l-41 -61q-6 -10 -3 -17.5t13 -7.5h187q16 0 26.5 -12.5t6.5 -28.5l-21 -96q-4 -16 -19.5 -28.5t-31.5 -12.5h-248 q-18 0 -24 -21l-86 -403q-4 -16 -18.5 -28.5t-31.5 -12.5h-114q-16 0 -26.5 12.5t-6.5 28.5l86 403q6 20 -16 21h-252q-16 0 -25.5 12t-5.5 29z" />
<glyph unicode="&#xa6;" horiz-adv-x="446" d="M-10 41l112 547q4 16 19.5 28.5t32.5 12.5h94q16 0 25.5 -12.5t5.5 -28.5l-115 -547q-4 -16 -19.5 -28.5t-31.5 -12.5h-95q-16 0 -24 12.5t-4 28.5zM162 860l114 547q4 16 19.5 28.5t32.5 12.5h94q16 0 25.5 -12.5t5.5 -28.5l-115 -547q-4 -16 -19.5 -28.5t-31.5 -12.5 h-94q-16 0 -25.5 12.5t-5.5 28.5z" />
<glyph unicode="&#xa7;" horiz-adv-x="1085" d="M-6.5 -249.5q-18.5 63.5 0.5 149.5l12 59q4 16 18.5 28.5t30.5 12.5h111q16 0 26.5 -12.5t6.5 -28.5l-13 -59q-16 -78 23 -115t117 -37t134 35t56 123q0 35 -13.5 60.5t-35.5 49.5q-78 78 -159 164t-154 170q-39 43 -60.5 91t-21.5 108q0 106 62.5 185t158.5 140 q29 20 14 48q-31 61 -31 135q0 92 33 163.5t91.5 121t139.5 75t179 25.5q68 0 126 -23.5t99 -67.5t58.5 -107.5t1.5 -141.5l-9 -37q-4 -16 -18 -28.5t-31 -12.5h-110q-16 0 -26.5 12.5t-6.5 28.5l8 37q14 66 -20.5 108.5t-110.5 42.5t-135.5 -43t-59.5 -133q0 -61 41 -102 l316 -332q53 -57 72.5 -109.5t19.5 -111.5q0 -49 -19.5 -94t-50 -85t-69.5 -74t-78 -60q-29 -16 -12 -48q14 -23 19 -49t5 -55q0 -86 -36 -158.5t-96 -125t-140 -82t-170 -29.5q-66 0 -127.5 20.5t-104.5 62.5t-61.5 105.5zM274 592q0 -23 10.5 -47.5t32.5 -48.5l252 -258 q16 -16 41 0q51 35 86 76.5t35 86.5q0 49 -43 95l-254 266q-14 16 -41 0q-47 -35 -83 -79t-36 -91z" />
<glyph unicode="&#xa8;" horiz-adv-x="815" d="M248 1274l31 141q4 12 14 22.5t24 10.5h140q14 0 22 -10.5t4 -22.5l-30 -141q-8 -33 -39 -33h-140q-14 0 -22 9.5t-4 23.5zM598 1274l31 141q4 12 14 22.5t25 10.5h139q14 0 22.5 -10.5t4.5 -22.5l-31 -141q-8 -33 -39 -33h-139q-14 0 -22.5 9.5t-4.5 23.5z" />
<glyph unicode="&#xa9;" horiz-adv-x="1597" d="M63 575q0 164 59.5 319t170 274.5t267.5 192.5t351 73q129 0 242 -44t196 -121t130 -181.5t47 -227.5q0 -164 -60.5 -319.5t-171 -275.5t-267.5 -192.5t-351 -72.5q-129 0 -241.5 44t-194.5 121t-129.5 182t-47.5 228zM229 571q0 -88 34 -162.5t93.5 -129t141.5 -85 t178 -30.5q156 0 282.5 55t215 149.5t136.5 221.5t48 270q0 88 -34 163t-93.5 130t-141.5 86t-178 31q-156 0 -281.5 -53.5t-214.5 -147.5t-137.5 -222t-48.5 -276zM436 594q8 51 21.5 116.5t27.5 116.5q18 63 54 121t85.5 101t109 68.5t124.5 25.5q78 0 137.5 -21.5 t96 -59.5t50 -90t1.5 -112q-8 -33 -33 -33h-111q-12 0 -21 5.5t-5 19.5q25 121 -125 121q-86 0 -131 -40t-64 -106q-14 -53 -27.5 -116.5t-21.5 -116.5q-10 -66 18.5 -105.5t114.5 -39.5q147 0 172 118q4 16 15.5 21.5t23.5 5.5h107q32 0 24 -33q-12 -59 -45 -111.5t-81 -90 t-109.5 -59t-130.5 -21.5q-76 0 -131.5 24.5t-91 67.5t-49 100t-5.5 123z" />
<glyph unicode="&#xaa;" horiz-adv-x="649" d="M86 1112q0 61 18.5 119.5t53.5 105.5t83 76t107 29q43 0 68.5 -14.5t38.5 -32.5q4 -4 7 -8.5t9 -4.5q4 0 10 9l13 32q4 10 18 11h57q20 0 17 -21l-101 -471q-4 -20 -24 -20h-53q-10 0 -15 6q-4 6 -1 20.5t-7 14.5q-6 0 -14.5 -8.5t-22.5 -17.5t-35.5 -17.5t-52.5 -8.5 q-78 0 -126 55.5t-48 145.5zM203 1118q0 -33 15 -65.5t67 -32.5q20 0 42.5 8t43 28.5t37 57.5t26.5 96q18 123 -80 123q-68 0 -109.5 -64.5t-41.5 -150.5z" />
<glyph unicode="&#xab;" horiz-adv-x="1007" d="M164 532.5q2 12.5 16 28.5l269 330q6 8 20 19.5t37 11.5h92q29 0 37 -18.5t-19 -49.5l-237 -297q-12 -14 -14.5 -23.5t4.5 -25.5l110 -297q14 -31 -2 -49.5t-45 -18.5h-92q-23 0 -32 11.5t-13 19.5l-127 330q-6 16 -4 28.5zM528 532.5q2 12.5 17 28.5l268 330 q6 8 20.5 19.5t36.5 11.5h93q29 0 37 -18.5t-19 -49.5l-238 -297q-12 -14 -14 -23.5t4 -25.5l111 -297q14 -31 -2.5 -49.5t-44.5 -18.5h-92q-23 0 -32 11.5t-14 19.5l-127 330q-6 16 -4 28.5z" />
<glyph unicode="&#xac;" horiz-adv-x="1044" d="M76 471l22 102q4 16 18.5 28.5t30.5 12.5h799q16 0 26.5 -12t6.5 -29l-76 -348q-4 -16 -18.5 -28.5t-30.5 -12.5h-102q-16 0 -26.5 12.5t-6.5 28.5l41 185q4 20 -17 20h-634q-16 0 -26.5 12.5t-6.5 28.5z" />
<glyph unicode="&#xad;" horiz-adv-x="927" d="M168 477l29 139q4 16 19 28.5t32 12.5h559q16 0 25.5 -12t5.5 -29l-29 -139q-4 -16 -18.5 -28.5t-30.5 -12.5h-559q-16 0 -26.5 12.5t-6.5 28.5z" />
<glyph unicode="&#xae;" horiz-adv-x="1597" d="M63 575q0 164 59.5 319t170 274.5t267.5 192.5t351 73q129 0 242 -44t196 -121t130 -181.5t47 -227.5q0 -164 -60.5 -319.5t-171 -275.5t-267.5 -192.5t-351 -72.5q-129 0 -241.5 44t-194.5 121t-129.5 182t-47.5 228zM229 571q0 -88 34 -162.5t93.5 -129t141.5 -85 t178 -30.5q156 0 282.5 55t215 149.5t136.5 221.5t48 270q0 88 -34 163t-93.5 130t-141.5 86t-178 31q-156 0 -281.5 -53.5t-214.5 -147.5t-137.5 -222t-48.5 -276zM457 332l164 772q4 14 15 23.5t23 9.5h275q55 0 97 -20.5t69.5 -53.5t42 -74t14.5 -82q0 -59 -17.5 -102 t-44 -75t-61 -54.5t-67.5 -40.5q-27 -14 -39.5 -21.5t-1.5 -29.5l98 -236q8 -18 -4 -33.5t-37 -15.5h-72q-20 0 -26 9t-13 24l-102 239q-4 8 -7 14.5t-18 6.5h-61q-16 0 -20 -17l-52 -243q-8 -33 -41 -33h-90q-12 0 -20 9t-4 24zM702 764q-2 -8 3.5 -12t11.5 -4h135 q66 0 109 43t43 114q0 41 -28 58.5t-75 17.5h-135q-16 0 -21 -16z" />
<glyph unicode="&#xaf;" horiz-adv-x="808" d="M113 1303l18 77q4 16 18.5 28.5t30.5 12.5h496q16 0 26.5 -12t6.5 -29l-19 -77q-4 -16 -18.5 -28.5t-30.5 -12.5h-496q-16 0 -26 12t-6 29z" />
<glyph unicode="&#xb0;" horiz-adv-x="757" d="M72 1079.5q-12 55.5 2 118.5q12 63 45 118.5t81 96.5t109.5 64.5t132.5 23.5q63 0 113.5 -23.5t82.5 -64.5t44 -96t0 -119q-14 -63 -47 -118.5t-81 -97.5t-109.5 -65.5t-131.5 -23.5q-63 0 -114.5 23.5t-83 65.5t-43.5 97.5zM240 1198q-12 -57 12 -98t96 -41 q57 0 107.5 41t62.5 98q10 57 -14.5 98t-95.5 41q-57 0 -107.5 -41t-60.5 -98z" />
<glyph unicode="&#xb1;" horiz-adv-x="1120" d="M-20 41l20 106q4 16 18.5 28.5t30.5 12.5h807q16 0 26.5 -12t6.5 -29l-23 -106q-4 -16 -18 -28.5t-31 -12.5h-807q-16 0 -25.5 12.5t-4.5 28.5zM133 803l23 106q4 16 18 28.5t31 12.5h295q20 0 24 21l64 295q4 16 18.5 28.5t30.5 12.5h106q16 0 26.5 -12.5t6.5 -28.5 l-63 -295q-4 -20 16 -21h295q16 0 26.5 -12t6.5 -29l-23 -106q-4 -16 -18.5 -28.5t-30.5 -12.5h-295q-20 0 -24 -21l-64 -295q-4 -16 -18.5 -28t-30.5 -12h-107q-16 0 -26 12t-6 28l63 295q4 20 -16 21h-295q-16 0 -26.5 12t-6.5 29z" />
<glyph unicode="&#xb2;" horiz-adv-x="579" d="M53 729l25 109q2 10 6 15t8 9l316 295q16 16 30.5 38.5t14.5 45.5t-13.5 40t-46.5 17t-55.5 -22.5t-28.5 -69.5q-4 -20 -24 -20h-107q-20 0 -16 20q18 104 78.5 167t167.5 63q92 0 144 -52.5t52 -121.5q0 -47 -11 -82t-28.5 -61.5t-38 -46t-39.5 -36.5l-188 -170 q-6 -6 -7 -13t13 -7h201q18 0 14 -21l-20 -96q-4 -20 -25 -20h-405q-20 0 -17 20z" />
<glyph unicode="&#xb3;" horiz-adv-x="579" d="M53 924l2 12q4 20 25 20h108q20 0 17 -20l-2 -12q-10 -39 12 -58.5t61 -19.5q35 0 64 25.5t29 68.5q0 31 -20.5 45t-49.5 14h-12q-18 0 -15 21l23 106q4 20 24 21h13q35 0 62.5 24.5t27.5 65.5q0 25 -16.5 38t-45.5 13q-33 0 -58.5 -18.5t-29.5 -50.5l-2 -17 q-2 -8 -10 -14t-16 -6h-109q-18 0 -14 20l2 17q6 45 28.5 86t58.5 69.5t79 46t88 17.5q80 0 138 -49.5t58 -124.5q0 -109 -86 -179q-8 -6 -8 -13t4 -11q23 -35 30 -63.5t7 -55.5q0 -51 -20.5 -96t-57 -78t-85 -52.5t-103.5 -19.5q-47 0 -89 17.5t-69.5 48.5t-40 73t-2.5 89z " />
<glyph unicode="&#xb4;" horiz-adv-x="608" d="M97.5 1213.5q-5.5 15.5 4.5 25.5l203 223q10 10 24.5 21.5t37.5 11.5h161q20 0 21.5 -16.5t-8.5 -26.5l-271 -229q-10 -10 -23.5 -17.5t-41.5 -7.5h-82q-20 0 -25.5 15.5z" />
<glyph unicode="&#xb5;" horiz-adv-x="1075" d="M-16 -369l286 1352q4 16 18.5 28.5t30.5 12.5h103q16 0 26.5 -12.5t6.5 -28.5l-131 -614q-18 -90 34 -147.5t148 -57.5t171 52t95 142l133 625q4 16 18.5 28.5t30.5 12.5h103q16 0 26.5 -12.5t6.5 -28.5l-201 -942q-4 -16 -18.5 -28.5t-30.5 -12.5h-90q-16 0 -27 14 q-6 10 -16.5 21.5t-26.5 11.5q-23 0 -41 -10t-43 -23.5t-59.5 -23.5t-92.5 -10q-41 0 -77.5 17t-67.5 42q-12 10 -31.5 4t-23.5 -31l-82 -381q-4 -16 -18.5 -28.5t-30.5 -12.5h-99q-16 0 -25 12.5t-5 28.5z" />
<glyph unicode="&#xb6;" horiz-adv-x="1126" d="M193 1044q0 80 31.5 151t88 124t136 84t176.5 31h491q16 0 25.5 -12.5t5.5 -28.5l-330 -1557q-4 -16 -19.5 -28.5t-31.5 -12.5h-82q-16 0 -25.5 12.5t-5.5 28.5l301 1424q6 20 -14 20h-164q-20 0 -26 -20l-301 -1424q-4 -16 -19.5 -28.5t-32.5 -12.5h-82q-16 0 -25 12.5 t-5 28.5l186 881q4 20 -16 20q-59 0 -107.5 27t-82.5 70t-53 98t-19 112z" />
<glyph unicode="&#xb7;" horiz-adv-x="872" d="M215 399l59 287q4 16 19.5 28.5t32.5 12.5h286q16 0 25.5 -12.5t5.5 -28.5l-59 -287q-4 -16 -19.5 -28.5t-32.5 -12.5h-286q-16 0 -25.5 12.5t-5.5 28.5z" />
<glyph unicode="&#xb8;" horiz-adv-x="667" d="M135.5 -398.5q-6.5 11.5 1.5 25.5l131 248q14 33 45 33h99q20 0 25 -11.5t-1 -25.5l-110 -248q-14 -33 -45 -33h-119q-20 0 -26.5 11.5z" />
<glyph unicode="&#xb9;" horiz-adv-x="413" d="M49 1016l47 176q4 14 13.5 24.5t17.5 18.5l195 180q10 10 22 10h115q20 0 16 -20l-143 -676q-4 -20 -25 -20h-102q-20 0 -17 20l101 461q2 4 -1 5t-5 -1l-211 -188q-8 -6 -16.5 -3t-6.5 13z" />
<glyph unicode="&#xba;" horiz-adv-x="677" d="M90 1130q4 29 8 51.5t15 53.5q37 113 110.5 167t171.5 54q39 0 75 -13t62.5 -41t41 -70t10.5 -97q-2 -31 -7.5 -53.5t-15.5 -51.5q-35 -106 -104.5 -162.5t-177.5 -56.5q-39 0 -76 14.5t-63.5 42t-41 68.5t-8.5 94zM205 1124q0 -41 26.5 -66.5t73.5 -25.5t84 25.5 t53 66.5q10 23 17.5 52.5t7.5 58.5q0 47 -22.5 73.5t-75.5 26.5t-87 -26.5t-53 -73.5q-12 -29 -16 -58.5t-8 -52.5z" />
<glyph unicode="&#xbb;" horiz-adv-x="1007" d="M28.5 161.5q-8.5 18.5 18.5 49.5l238 297q12 16 14 25.5t-4 23.5l-111 297q-14 31 2.5 49.5t44.5 18.5h93q23 0 32 -11.5t13 -19.5l125 -330q8 -16 6 -28.5t-19 -28.5l-266 -330q-6 -8 -20.5 -19.5t-36.5 -11.5h-92q-29 0 -37.5 18.5zM393 161.5q-8 18.5 19 49.5l237 297 q12 16 14.5 25.5t-4.5 23.5l-110 297q-14 31 2 49.5t45 18.5h92q23 0 32 -11.5t13 -19.5l125 -330q8 -16 6 -28.5t-18 -28.5l-266 -330q-6 -8 -20.5 -19.5t-37.5 -11.5h-92q-29 0 -37 18.5z" />
<glyph unicode="&#xbc;" horiz-adv-x="1349" d="M2.5 18.5q-8.5 18.5 7.5 38.5l1168 1346q25 31 51 31h84q20 0 28.5 -18.5t-8.5 -39.5l-1165 -1345q-25 -31 -49 -31h-88q-20 0 -28.5 18.5zM172 1102l27 119q4 14 13 26.5t15 16.5l211 161q10 10 23 11h104q20 0 17 -21l-144 -676q-6 -20 -24 -20h-97q-8 0 -14 5t-2 15 l107 506q2 4 -1.5 6t-5.5 -2l-206 -155q-8 -6 -16.5 -3t-6.5 11zM608 154l19 86q2 10 8 19t16 20l375 423q6 8 10 11.5t15 3.5h104q20 0 16 -21l-90 -426q-4 -10 9 -10h49q20 0 16 -20l-18 -86q-4 -20 -25 -21h-49q-12 0 -12 -10l-23 -103q-4 -20 -24 -20h-91q-20 0 -16 20 l23 103q0 10 -9 10h-286q-20 0 -17 21zM784 268q-12 -8 2 -8h152q8 0 12 10l51 240q2 4 -1 5t-7 -3z" />
<glyph unicode="&#xbd;" horiz-adv-x="1413" d="M2.5 18.5q-8.5 18.5 7.5 38.5l1168 1346q25 31 51 31h84q20 0 28.5 -18.5t-8.5 -39.5l-1165 -1345q-25 -31 -49 -31h-88q-20 0 -28.5 18.5zM172 1102l27 119q4 14 13 26.5t15 16.5l211 161q10 10 23 11h104q20 0 17 -21l-144 -676q-6 -20 -24 -20h-97q-8 0 -14 5t-2 15 l107 506q2 4 -1.5 6t-5.5 -2l-206 -155q-8 -6 -16.5 -3t-6.5 11zM678 20l18 91q4 12 8.5 17t8.5 9l295 250q41 35 73.5 75t32.5 81q0 29 -16.5 45t-61.5 16q-25 0 -56.5 -18.5t-39.5 -59.5l-6 -24q-4 -20 -25 -21h-94q-20 0 -16 21l8 35q8 41 30.5 76.5t54.5 62t69.5 42 t76.5 15.5q51 0 89 -14t65 -39t40 -55.5t13 -61.5q0 -47 -12 -83t-33.5 -65.5t-48.5 -56t-57 -51.5l-191 -160q-4 -4 -3 -10t9 -6h236q18 0 14 -20l-18 -91q-4 -20 -25 -20h-422q-20 0 -16 20z" />
<glyph unicode="&#xbe;" horiz-adv-x="1372" d="M0.5 18.5q-8.5 18.5 7.5 38.5l1168 1346q25 31 51 31h84q20 0 28.5 -18.5t-8.5 -39.5l-1165 -1345q-25 -31 -49 -31h-88q-20 0 -28.5 18.5zM80 918l6 26q4 20 25 21h98q20 0 16 -21l-6 -26q-8 -37 19.5 -58.5t62.5 -21.5q47 0 84 27.5t37 82.5q0 35 -13.5 58.5 t-64.5 23.5h-12q-20 0 -17 21l19 86q4 20 24 20h13q43 0 72.5 36t29.5 77q0 59 -67 59q-31 0 -63 -21.5t-38 -54.5l-8 -34q-4 -20 -25 -21h-96q-20 0 -16 21l8 34q16 84 78.5 140.5t163.5 56.5q84 0 142 -41t58 -127q0 -59 -27.5 -103t-72.5 -73q-12 -10 -4 -19 q31 -25 43 -59.5t12 -64.5q0 -47 -17.5 -92.5t-52 -82t-90 -59t-129.5 -22.5q-45 0 -85 16t-66.5 45t-38.5 66.5t-2 83.5zM606 154l19 86q6 20 24 39l375 423q12 14 27 15h104q20 0 16 -21l-92 -426q0 -10 8 -10h50q20 0 16 -20l-18 -86q-4 -20 -25 -21h-49q-8 0 -12 -10 l-23 -103q-4 -20 -25 -20h-90q-20 0 -16 20l23 103q4 10 -9 10h-286q-20 0 -17 21zM782 268q-8 -8 2 -8h152q12 0 12 10l51 240q2 4 -1 5t-7 -3z" />
<glyph unicode="&#xbf;" horiz-adv-x="972" d="M-51 -82q0 68 16.5 121t44 96t62 76t71.5 57q31 20 67 43t69.5 47.5t59.5 52t32 60.5l30 143q4 16 19.5 28.5t32.5 12.5h104q16 0 25.5 -12t5.5 -29l-37 -172q-10 -41 -25.5 -77.5t-38.5 -57.5q-33 -31 -57 -48t-49 -30.5t-51.5 -30t-63.5 -46.5q-57 -47 -93 -94.5 t-36 -137.5q0 -66 44 -101.5t118 -35.5q51 0 92 17.5t72 46t49 65.5t27 74l6 30q4 16 19.5 28.5t31.5 12.5h104q16 0 25.5 -12t5.5 -29l-6 -30q-18 -82 -53 -154t-88.5 -124t-125 -83t-159.5 -31q-84 0 -148.5 26t-109.5 71t-68.5 103.5t-23.5 123.5zM414 834l37 170 q4 16 18 28t31 12h170q16 0 26.5 -12t5.5 -28l-36 -170q-4 -16 -18.5 -28.5t-31.5 -12.5h-170q-16 0 -26 12t-6 29z" />
<glyph unicode="&#xc0;" horiz-adv-x="1028" d="M-16 13.5q-7 13.5 0 27.5l669 1362q14 31 45 31h144q29 0 32 -31l93 -1362q2 -14 -11.5 -27.5t-37.5 -13.5h-109q-29 0 -33 31l-20 313q-4 29 -33 29h-342q-33 0 -45 -29l-156 -313q-14 -31 -45 -31h-119q-25 0 -32 13.5zM451 586q-8 -23 12 -23h256q20 0 20 23l-12 571 q0 12 -6 12h-4q-4 0 -10 -12zM504 1821q-8 10 2 26.5t31 16.5h161q23 0 32 -11.5t13 -21.5l109 -223q6 -10 -5 -25.5t-32 -15.5h-82q-29 0 -39 7t-18 17z" />
<glyph unicode="&#xc1;" horiz-adv-x="1028" d="M-16 13.5q-7 13.5 0 27.5l669 1362q14 31 45 31h144q29 0 32 -31l93 -1362q2 -14 -11.5 -27.5t-37.5 -13.5h-109q-29 0 -33 31l-20 313q-4 29 -33 29h-342q-33 0 -45 -29l-156 -313q-14 -31 -45 -31h-119q-25 0 -32 13.5zM451 586q-8 -23 12 -23h256q20 0 20 23l-12 571 q0 12 -6 12h-4q-4 0 -10 -12zM636.5 1561.5q-5.5 15.5 4.5 25.5l203 223q10 10 24.5 21.5t36.5 11.5h162q20 0 21.5 -16.5t-9.5 -26.5l-270 -229q-10 -10 -23.5 -17.5t-42.5 -7.5h-81q-20 0 -25.5 15.5z" />
<glyph unicode="&#xc2;" horiz-adv-x="1028" d="M-16 13.5q-7 13.5 0 27.5l669 1362q14 31 45 31h144q29 0 32 -31l93 -1362q2 -14 -11.5 -27.5t-37.5 -13.5h-109q-29 0 -33 31l-20 313q-4 29 -33 29h-342q-33 0 -45 -29l-156 -313q-14 -31 -45 -31h-119q-25 0 -32 13.5zM451 586q-8 -23 12 -23h256q20 0 20 23l-12 571 q0 12 -6 12h-4q-4 0 -10 -12zM491.5 1562.5q-2.5 16.5 8.5 26.5l270 230q10 10 24.5 17t43.5 7h86q27 0 36 -7t17 -17l172 -230q8 -10 -1 -26.5t-30 -16.5h-110q-23 0 -36.5 11.5t-21.5 21.5l-82 100q-12 14 -28 0l-125 -100q-10 -10 -28.5 -21.5t-41.5 -11.5h-131 q-20 0 -22.5 16.5z" />
<glyph unicode="&#xc3;" horiz-adv-x="1028" d="M-16 13.5q-7 13.5 0 27.5l669 1362q14 31 45 31h144q29 0 32 -31l93 -1362q2 -14 -11.5 -27.5t-37.5 -13.5h-109q-29 0 -33 31l-20 313q-4 29 -33 29h-342q-33 0 -45 -29l-156 -313q-14 -31 -45 -31h-119q-25 0 -32 13.5zM451 586q-8 -23 12 -23h256q20 0 20 23l-12 571 q0 12 -6 12h-4q-4 0 -10 -12zM518 1634l17 82q8 41 57 73t110 32q49 0 79 -8.5t56.5 -17.5t57.5 -17.5t84 -8.5q39 0 62.5 13.5t39.5 29.5t34 8t11 -36l-16 -82q-8 -41 -57 -73t-111 -32q-49 0 -78.5 8.5t-56.5 17.5t-58.5 17.5t-82.5 8.5q-35 0 -57.5 -11.5t-45.5 -31.5 q-16 -14 -33.5 -7t-11.5 35z" />
<glyph unicode="&#xc4;" horiz-adv-x="1007" d="M-16 13.5q-7 13.5 0 27.5l669 1362q14 31 45 31h144q29 0 32 -31l93 -1362q2 -14 -11.5 -27.5t-37.5 -13.5h-109q-29 0 -33 31l-20 313q-4 29 -33 29h-342q-33 0 -45 -29l-156 -313q-14 -31 -45 -31h-119q-25 0 -32 13.5zM451 586q-8 -23 12 -23h256q20 0 20 23l-12 571 q0 12 -6 12h-4q-4 0 -10 -12zM537 1622l30 141q4 12 14.5 22.5t24.5 10.5h139q14 0 22.5 -10t4.5 -23l-31 -141q-8 -33 -39 -33h-139q-14 0 -22.5 9.5t-3.5 23.5zM887 1622l31 141q4 12 14 22.5t24 10.5h140q14 0 22 -10t4 -23l-30 -141q-8 -33 -39 -33h-140q-14 0 -22 9.5 t-4 23.5z" />
<glyph unicode="&#xc5;" horiz-adv-x="1042" d="M-16 13.5q-7 13.5 0 27.5l669 1362q14 31 45 31h144q29 0 32 -31l93 -1362q2 -14 -11.5 -27.5t-37.5 -13.5h-109q-29 0 -33 31l-20 313q-4 29 -33 29h-342q-33 0 -45 -29l-156 -313q-14 -31 -45 -31h-119q-25 0 -32 13.5zM451 586q-8 -23 12 -23h256q20 0 20 23l-12 571 q0 12 -6 12h-4q-4 0 -10 -12zM600 1698q0 55 20.5 103t56.5 85t82 58.5t99 21.5q94 0 148.5 -51t54.5 -135q0 -53 -21.5 -100.5t-56.5 -84t-82 -58t-98 -21.5q-92 0 -147.5 52t-55.5 130zM748 1724q0 -29 17 -47t48 -18q37 0 71 27.5t34 70.5q0 27 -20.5 46.5t-49.5 19.5 q-35 0 -67.5 -28t-32.5 -71z" />
<glyph unicode="&#xc6;" horiz-adv-x="1480" d="M-59 13.5q-7 13.5 0 27.5l657 1339q6 14 27.5 34t54.5 20h901q16 0 26.5 -12.5t6.5 -28.5l-25 -113q-4 -16 -18.5 -28.5t-30.5 -12.5h-487q-20 0 -25 -20l-80 -369q-4 -20 17 -21h465q16 0 26 -12t6 -29l-24 -112q-4 -16 -18.5 -28.5t-30.5 -12.5h-465q-20 0 -25 -21 l-86 -399q-4 -20 16 -20h492q16 0 26.5 -12.5t6.5 -28.5l-25 -113q-4 -16 -18.5 -28.5t-30.5 -12.5h-666q-16 0 -26 12.5t-6 28.5l63 299q8 33 -31 33h-282q-33 0 -45 -29l-158 -313q-14 -31 -45 -31h-111q-25 0 -32 13.5zM401.5 568.5q4.5 -5.5 14.5 -5.5h258q18 0 24 23 l148 633q4 20 -17 20h-96q-14 0 -21 -7t-10 -13l-299 -633q-6 -12 -1.5 -17.5z" />
<glyph unicode="&#xc7;" horiz-adv-x="1107" d="M113 410q6 61 18 142t28.5 166t37 165t41.5 141q29 84 72.5 161t106 136t145.5 94t190 35q102 0 187 -33t141.5 -90t80 -135t0.5 -168l-8 -33q-4 -16 -18.5 -28.5t-30.5 -12.5h-113q-16 0 -25.5 13.5t-4.5 35.5l4 25q16 98 -37.5 164.5t-175.5 66.5q-117 0 -197 -59 t-119 -172q-20 -63 -40.5 -143t-39 -164t-31 -164t-18.5 -143q-4 -45 7.5 -87t38 -74t69.5 -51.5t102 -19.5q119 0 201 57.5t111 174.5l8 34q4 16 18.5 28.5t30.5 12.5h115q16 0 26 -12t6 -29l-6 -34q-18 -86 -58 -164t-103.5 -136.5t-150.5 -92t-198 -33.5q-92 0 -171 29.5 t-136 85t-86 134t-18 177.5zM278.5 -398.5q-6.5 11.5 2.5 25.5l131 248q14 33 45 33h98q20 0 25.5 -11.5t-0.5 -25.5l-111 -248q-14 -33 -45 -33h-119q-20 0 -26.5 11.5z" />
<glyph unicode="&#xc8;" horiz-adv-x="950" d="M53 41l287 1352q4 16 18.5 28.5t30.5 12.5h662q16 0 26 -12.5t6 -28.5l-24 -113q-4 -16 -18.5 -28.5t-30.5 -12.5h-488q-20 0 -24 -20l-78 -369q-4 -20 16 -21h471q16 0 25.5 -12t5.5 -29l-23 -112q-4 -16 -19 -28.5t-32 -12.5h-471q-20 0 -24 -21l-84 -399 q-4 -20 16 -20h498q16 0 25.5 -12.5t4.5 -28.5l-22 -113q-4 -16 -18.5 -28.5t-30.5 -12.5h-672q-16 0 -26.5 12.5t-6.5 28.5zM508 1800q-8 10 2 26.5t31 16.5h161q23 0 32 -11t14 -22l108 -223q6 -10 -5 -25.5t-32 -15.5h-82q-29 0 -39 7.5t-18 17.5z" />
<glyph unicode="&#xc9;" horiz-adv-x="950" d="M53 41l287 1352q4 16 18.5 28.5t30.5 12.5h662q16 0 26 -12.5t6 -28.5l-24 -113q-4 -16 -18.5 -28.5t-30.5 -12.5h-488q-20 0 -24 -20l-78 -369q-4 -20 16 -21h471q16 0 25.5 -12t5.5 -29l-23 -112q-4 -16 -19 -28.5t-32 -12.5h-471q-20 0 -24 -21l-84 -399 q-4 -20 16 -20h498q16 0 25.5 -12.5t4.5 -28.5l-22 -113q-4 -16 -18.5 -28.5t-30.5 -12.5h-672q-16 0 -26.5 12.5t-6.5 28.5zM527.5 1561.5q-5.5 15.5 4.5 25.5l203 223q10 10 24.5 21.5t37.5 11.5h161q20 0 21.5 -16.5t-8.5 -26.5l-271 -229q-10 -10 -23 -17.5t-42 -7.5 h-82q-20 0 -25.5 15.5z" />
<glyph unicode="&#xca;" horiz-adv-x="950" d="M53 41l287 1352q4 16 18.5 28.5t30.5 12.5h662q16 0 26 -12.5t6 -28.5l-24 -113q-4 -16 -18.5 -28.5t-30.5 -12.5h-488q-20 0 -24 -20l-78 -369q-4 -20 16 -21h471q16 0 25.5 -12t5.5 -29l-23 -112q-4 -16 -19 -28.5t-32 -12.5h-471q-20 0 -24 -21l-84 -399 q-4 -20 16 -20h498q16 0 25.5 -12.5t4.5 -28.5l-22 -113q-4 -16 -18.5 -28.5t-30.5 -12.5h-672q-16 0 -26.5 12.5t-6.5 28.5zM391.5 1562.5q-2.5 16.5 7.5 26.5l271 230q10 10 24.5 17t42.5 7h86q27 0 36 -7t18 -17l172 -230q8 -10 -1.5 -26.5t-29.5 -16.5h-111 q-23 0 -36 11.5t-21 21.5l-82 100q-12 14 -29 0l-125 -100q-10 -10 -28.5 -21.5t-40.5 -11.5h-131q-20 0 -22.5 16.5z" />
<glyph unicode="&#xcb;" horiz-adv-x="950" d="M53 41l287 1352q4 16 18.5 28.5t30.5 12.5h662q16 0 26 -12.5t6 -28.5l-24 -113q-4 -16 -18.5 -28.5t-30.5 -12.5h-488q-20 0 -24 -20l-78 -369q-4 -20 16 -21h471q16 0 25.5 -12t5.5 -29l-23 -112q-4 -16 -19 -28.5t-32 -12.5h-471q-20 0 -24 -21l-84 -399 q-4 -20 16 -20h498q16 0 25.5 -12.5t4.5 -28.5l-22 -113q-4 -16 -18.5 -28.5t-30.5 -12.5h-672q-16 0 -26.5 12.5t-6.5 28.5zM449 1622l30 141q4 12 14.5 22.5t24.5 10.5h139q14 0 22.5 -10t4.5 -23l-31 -141q-8 -33 -39 -33h-139q-14 0 -22.5 9.5t-3.5 23.5zM799 1622 l30 141q4 12 14.5 22.5t24.5 10.5h140q14 0 22 -10t4 -23l-30 -141q-8 -33 -39 -33h-140q-14 0 -22 9.5t-4 23.5z" />
<glyph unicode="&#xcc;" horiz-adv-x="606" d="M182 41l287 1352q4 16 18.5 28.5t30.5 12.5h113q16 0 26.5 -12.5t6.5 -28.5l-287 -1352q-4 -16 -19.5 -28.5t-31.5 -12.5h-113q-16 0 -25.5 12.5t-5.5 28.5zM344 1800q-8 10 2 26.5t31 16.5h162q23 0 32 -11t13 -22l108 -223q6 -10 -5 -25.5t-32 -15.5h-82q-29 0 -39 7.5 t-18 17.5z" />
<glyph unicode="&#xcd;" horiz-adv-x="575" d="M53 41l287 1352q4 16 18.5 28.5t30.5 12.5h113q16 0 26.5 -12.5t6.5 -28.5l-287 -1352q-4 -16 -19.5 -28.5t-31.5 -12.5h-113q-16 0 -25.5 12.5t-5.5 28.5zM367.5 1561.5q-5.5 15.5 5.5 25.5l202 223q10 10 24.5 21.5t37.5 11.5h162q20 0 21 -16.5t-9 -26.5l-270 -229 q-10 -10 -23.5 -17.5t-42.5 -7.5h-82q-20 0 -25.5 15.5z" />
<glyph unicode="&#xce;" horiz-adv-x="720" d="M53 41l287 1352q4 16 18.5 28.5t30.5 12.5h113q16 0 26.5 -12.5t6.5 -28.5l-287 -1352q-4 -16 -19.5 -28.5t-31.5 -12.5h-113q-16 0 -25.5 12.5t-5.5 28.5zM160 1562.5q-2 16.5 8 26.5l270 230q10 10 24.5 17t43.5 7h86q27 0 36 -7t17 -17l172 -230q8 -10 -1 -26.5 t-30 -16.5h-110q-23 0 -36 11.5t-22 21.5l-81 100q-12 14 -29 0l-125 -100q-10 -10 -28.5 -21.5t-41.5 -11.5h-131q-20 0 -22 16.5z" />
<glyph unicode="&#xcf;" horiz-adv-x="448" d="M53 41l287 1352q4 16 18.5 28.5t30.5 12.5h113q16 0 26.5 -12.5t6.5 -28.5l-287 -1352q-4 -16 -19.5 -28.5t-31.5 -12.5h-113q-16 0 -25.5 12.5t-5.5 28.5zM199 1622l30 141q4 12 14.5 22.5t24.5 10.5h140q14 0 22 -10t4 -23l-31 -141q-8 -33 -38 -33h-140q-14 0 -22 9.5 t-4 23.5zM549 1622l31 141q4 12 14 22.5t24 10.5h140q14 0 22 -10t4 -23l-30 -141q-8 -33 -39 -33h-140q-14 0 -22 9.5t-4 23.5z" />
<glyph unicode="&#xd0;" horiz-adv-x="1026" d="M-10 41l123 573q4 20 -17 21h-65q-16 0 -25.5 12t-5.5 29l23 112q4 16 18 28.5t31 12.5h65q20 0 25 21l114 543q4 16 18.5 28.5t31.5 12.5h321q92 0 171 -27t136.5 -79t85 -129t19.5 -175q-6 -61 -18.5 -142t-30 -165t-37 -165t-39.5 -142q-29 -84 -72 -159t-106.5 -130 t-146.5 -88t-189 -33h-397q-16 0 -26.5 12.5t-6.5 28.5zM221 215q-4 -20 17 -20h182q119 0 196.5 52t118.5 163q23 63 44.5 143t39 164t29.5 164t16 143q8 90 -44 152.5t-173 62.5h-188q-20 0 -25 -20l-78 -369q-4 -20 17 -21h205q16 0 26 -12t6 -29l-24 -112 q-4 -16 -18.5 -28.5t-30.5 -12.5h-205q-20 0 -25 -21z" />
<glyph unicode="&#xd1;" horiz-adv-x="1114" d="M53 41l287 1352q4 16 18.5 28.5t30.5 12.5h170q16 0 24.5 -6.5t12.5 -28.5l182 -1034q2 -6 8.5 -5.5t8.5 9.5l219 1024q4 16 18.5 28.5t30.5 12.5h104q16 0 26.5 -12.5t6.5 -28.5l-287 -1352q-4 -16 -18 -28.5t-31 -12.5h-170q-31 0 -37 35l-184 1030q-2 6 -8 5t-8 -9 l-217 -1020q-4 -16 -18.5 -28.5t-31.5 -12.5h-104q-16 0 -26.5 12.5t-6.5 28.5zM516 1614l16 82q8 41 57.5 72.5t110.5 31.5q49 0 79 -8t56.5 -17.5t57.5 -17.5t84 -8q39 0 62.5 13.5t39.5 29.5t33.5 8t11.5 -37l-16 -82q-8 -41 -57.5 -72.5t-110.5 -31.5q-49 0 -79 8 t-56.5 17.5t-58 17.5t-82.5 8q-35 0 -57.5 -11t-45.5 -32q-16 -14 -33.5 -7t-11.5 36z" />
<glyph unicode="&#xd2;" horiz-adv-x="1136" d="M113 410q6 61 18 142t28.5 166t37 165t41.5 141q29 84 69.5 161t102 136t144.5 94t198 35q92 0 170.5 -29.5t136 -85t85 -134.5t19.5 -177q-6 -61 -18 -142t-29.5 -165t-37 -165t-40.5 -142q-29 -84 -69.5 -162t-101 -136.5t-145.5 -93t-198 -34.5q-92 0 -171 29.5 t-136 85t-86 134t-18 177.5zM307 410q-4 -45 7.5 -87t38 -74t69.5 -51.5t102 -19.5q119 0 197 60.5t119 171.5q23 63 44 143t38.5 164t30 164t16.5 143q4 45 -7.5 87t-37 74t-68.5 51t-104 19q-117 0 -197 -59t-119 -172q-20 -63 -40.5 -143t-39 -164t-31 -164t-18.5 -143z M559 1800q-8 10 2 26.5t31 16.5h162q23 0 32 -11t13 -22l108 -223q6 -10 -5 -25.5t-32 -15.5h-82q-29 0 -39 7.5t-18 17.5z" />
<glyph unicode="&#xd3;" horiz-adv-x="1136" d="M113 410q6 61 18 142t28.5 166t37 165t41.5 141q29 84 69.5 161t102 136t144.5 94t198 35q92 0 170.5 -29.5t136 -85t85 -134.5t19.5 -177q-6 -61 -18 -142t-29.5 -165t-37 -165t-40.5 -142q-29 -84 -69.5 -162t-101 -136.5t-145.5 -93t-198 -34.5q-92 0 -171 29.5 t-136 85t-86 134t-18 177.5zM307 410q-4 -45 7.5 -87t38 -74t69.5 -51.5t102 -19.5q119 0 197 60.5t119 171.5q23 63 44 143t38.5 164t30 164t16.5 143q4 45 -7.5 87t-37 74t-68.5 51t-104 19q-117 0 -197 -59t-119 -172q-20 -63 -40.5 -143t-39 -164t-31 -164t-18.5 -143z M712 1561.5q-5 15.5 5 25.5l203 223q10 10 24 21.5t37 11.5h162q20 0 21 -16.5t-9 -26.5l-270 -229q-10 -10 -23.5 -17.5t-42.5 -7.5h-82q-20 0 -25 15.5z" />
<glyph unicode="&#xd4;" horiz-adv-x="1136" d="M113 410q6 61 18 142t28.5 166t37 165t41.5 141q29 84 69.5 161t102 136t144.5 94t198 35q92 0 170.5 -29.5t136 -85t85 -134.5t19.5 -177q-6 -61 -18 -142t-29.5 -165t-37 -165t-40.5 -142q-29 -84 -69.5 -162t-101 -136.5t-145.5 -93t-198 -34.5q-92 0 -171 29.5 t-136 85t-86 134t-18 177.5zM307 410q-4 -45 7.5 -87t38 -74t69.5 -51.5t102 -19.5q119 0 197 60.5t119 171.5q23 63 44 143t38.5 164t30 164t16.5 143q4 45 -7.5 87t-37 74t-68.5 51t-104 19q-117 0 -197 -59t-119 -172q-20 -63 -40.5 -143t-39 -164t-31 -164t-18.5 -143z M494 1562.5q-2 16.5 8 26.5l270 230q10 10 24.5 17t43.5 7h86q27 0 36 -7t17 -17l172 -230q8 -10 -1 -26.5t-30 -16.5h-110q-23 0 -36 11.5t-22 21.5l-82 100q-12 14 -28 0l-125 -100q-10 -10 -28.5 -21.5t-41.5 -11.5h-131q-20 0 -22 16.5z" />
<glyph unicode="&#xd5;" horiz-adv-x="1136" d="M113 410q6 61 18 142t28.5 166t37 165t41.5 141q29 84 69.5 161t102 136t144.5 94t198 35q92 0 170.5 -29.5t136 -85t85 -134.5t19.5 -177q-6 -61 -18 -142t-29.5 -165t-37 -165t-40.5 -142q-29 -84 -69.5 -162t-101 -136.5t-145.5 -93t-198 -34.5q-92 0 -171 29.5 t-136 85t-86 134t-18 177.5zM307 410q-4 -45 7.5 -87t38 -74t69.5 -51.5t102 -19.5q119 0 197 60.5t119 171.5q23 63 44 143t38.5 164t30 164t16.5 143q4 45 -7.5 87t-37 74t-68.5 51t-104 19q-117 0 -197 -59t-119 -172q-20 -63 -40.5 -143t-39 -164t-31 -164t-18.5 -143z M539 1634l16 82q8 41 57.5 73t110.5 32q49 0 78.5 -8.5t56.5 -17.5t57.5 -17.5t83.5 -8.5q39 0 62.5 13.5t40.5 29.5q16 16 33.5 8t11.5 -36l-17 -82q-8 -41 -57 -73t-110 -32q-49 0 -79 8.5t-56.5 17.5t-58.5 17.5t-83 8.5q-35 0 -57.5 -11.5t-44.5 -31.5q-16 -14 -34 -7 t-11 35z" />
<glyph unicode="&#xd6;" horiz-adv-x="1136" d="M113 410q6 61 18 142t28.5 166t37 165t41.5 141q29 84 69.5 161t102 136t144.5 94t198 35q92 0 170.5 -29.5t136 -85t85 -134.5t19.5 -177q-6 -61 -18 -142t-29.5 -165t-37 -165t-40.5 -142q-29 -84 -69.5 -162t-101 -136.5t-145.5 -93t-198 -34.5q-92 0 -171 29.5 t-136 85t-86 134t-18 177.5zM307 410q-4 -45 7.5 -87t38 -74t69.5 -51.5t102 -19.5q119 0 197 60.5t119 171.5q23 63 44 143t38.5 164t30 164t16.5 143q4 45 -7.5 87t-37 74t-68.5 51t-104 19q-117 0 -197 -59t-119 -172q-20 -63 -40.5 -143t-39 -164t-31 -164t-18.5 -143z M561 1622l31 141q4 12 14 22.5t25 10.5h139q14 0 22.5 -10t4.5 -23l-31 -141q-8 -33 -39 -33h-139q-14 0 -22.5 9.5t-4.5 23.5zM911 1622l31 141q4 12 14.5 22.5t24.5 10.5h139q14 0 22.5 -10t4.5 -23l-31 -141q-8 -33 -39 -33h-139q-14 0 -22.5 9.5t-4.5 23.5z" />
<glyph unicode="&#xd7;" horiz-adv-x="1003" d="M35 253.5q4 16.5 18 29.5l266 215q16 14 7 28l-191 242q-10 12 -7 28.5t19 28.5l84 66q35 29 58 0l182 -232q10 -14 29 0l278 230q14 12 30.5 12t27.5 -12l77 -86q10 -12 6 -28.5t-18 -29.5l-274 -223q-16 -14 -6 -28l182 -238q10 -12 7 -28.5t-19 -28.5l-78 -66 q-16 -12 -31.5 -12t-26.5 12l-182 232q-10 14 -29 0l-278 -230q-14 -12 -30.5 -12t-26.5 12l-68 90q-10 12 -6 28.5z" />
<glyph unicode="&#xd8;" horiz-adv-x="1136" d="M28.5 17.5q-8.5 17.5 8.5 39.5l53 78q8 10 5 15.5t-5 9.5q-33 51 -47 113.5t-6 136.5q6 61 18.5 142t28.5 166t36.5 165t41.5 141q29 84 69.5 161t102 136t144.5 94t198 35q66 0 125 -15.5t108 -43.5q4 -2 11.5 -2t17.5 14q12 16 21.5 23.5t23.5 7.5h88q20 0 27.5 -17.5 t-6.5 -40.5l-56 -84q-6 -10 -5 -13t3 -7q31 -51 45.5 -112.5t7.5 -135.5q-6 -61 -18 -142t-29.5 -165t-37 -165t-39.5 -142q-29 -84 -70 -162t-101.5 -136.5t-145.5 -93t-197 -34.5q-133 0 -232 55q-4 2 -10 3t-12 -11q-10 -18 -22.5 -24.5t-27.5 -6.5h-88q-20 0 -28.5 17.5 zM231 369q0 -4 5.5 -7.5t9.5 3.5l557 835q8 12 5 17.5t-7 7.5q-49 30 -125 30q-117 0 -197 -59t-119 -172q-20 -63 -40.5 -143t-39 -164t-30.5 -164t-19 -143q-2 -20 0 -41zM320 212q2 -3 6 -5q51 -29 123 -29q119 0 196.5 60.5t118.5 171.5q23 63 44 143t38.5 164t30 164 t16.5 143v31q0 4 -4 9t-12 -7l-553 -832q-6 -10 -4 -13z" />
<glyph unicode="&#xd9;" horiz-adv-x="1142" d="M121 410l209 983q4 16 19.5 28.5t31.5 12.5h113q16 0 25 -12.5t5 -28.5l-207 -963q-14 -68 -0.5 -116t46 -78.5t77.5 -44t92 -13.5q70 0 124.5 20.5t93 56.5t63.5 81t35 94l209 963q4 16 19.5 28.5t31.5 12.5h113q16 0 25 -12.5t5 -28.5l-209 -983q-18 -92 -62 -170 t-109.5 -135.5t-150.5 -89t-188 -31.5q-98 0 -182 31.5t-141 89t-82 135t-6 170.5zM582 1800q-8 10 2 26.5t30 16.5h162q23 0 32 -11t13 -22l109 -223q6 -10 -5.5 -25.5t-31.5 -15.5h-82q-29 0 -39 7.5t-18 17.5z" />
<glyph unicode="&#xda;" horiz-adv-x="1142" d="M121 410l209 983q4 16 19.5 28.5t31.5 12.5h113q16 0 25 -12.5t5 -28.5l-207 -963q-14 -68 -0.5 -116t46 -78.5t77.5 -44t92 -13.5q70 0 124.5 20.5t93 56.5t63.5 81t35 94l209 963q4 16 19.5 28.5t31.5 12.5h113q16 0 25 -12.5t5 -28.5l-209 -983q-18 -92 -62 -170 t-109.5 -135.5t-150.5 -89t-188 -31.5q-98 0 -182 31.5t-141 89t-82 135t-6 170.5zM714 1561.5q-5 15.5 5 25.5l203 223q10 10 24.5 21.5t36.5 11.5h162q20 0 21 -16.5t-9 -26.5l-270 -229q-10 -10 -23.5 -17.5t-42.5 -7.5h-82q-20 0 -25 15.5z" />
<glyph unicode="&#xdb;" horiz-adv-x="1142" d="M121 410l209 983q4 16 19.5 28.5t31.5 12.5h113q16 0 25 -12.5t5 -28.5l-207 -963q-14 -68 -0.5 -116t46 -78.5t77.5 -44t92 -13.5q70 0 124.5 20.5t93 56.5t63.5 81t35 94l209 963q4 16 19.5 28.5t31.5 12.5h113q16 0 25 -12.5t5 -28.5l-209 -983q-18 -92 -62 -170 t-109.5 -135.5t-150.5 -89t-188 -31.5q-98 0 -182 31.5t-141 89t-82 135t-6 170.5zM508 1562.5q-2 16.5 8 26.5l270 230q10 10 24.5 17t43.5 7h86q27 0 36 -7t17 -17l172 -230q8 -10 -1 -26.5t-29 -16.5h-111q-23 0 -36 11.5t-21 21.5l-82 100q-12 14 -29 0l-125 -100 q-10 -10 -28.5 -21.5t-40.5 -11.5h-132q-20 0 -22 16.5z" />
<glyph unicode="&#xdc;" horiz-adv-x="1142" d="M121 410l209 983q4 16 19.5 28.5t31.5 12.5h113q16 0 25 -12.5t5 -28.5l-207 -963q-14 -68 -0.5 -116t46 -78.5t77.5 -44t92 -13.5q70 0 124.5 20.5t93 56.5t63.5 81t35 94l209 963q4 16 19.5 28.5t31.5 12.5h113q16 0 25 -12.5t5 -28.5l-209 -983q-18 -92 -62 -170 t-109.5 -135.5t-150.5 -89t-188 -31.5q-98 0 -182 31.5t-141 89t-82 135t-6 170.5zM524 1622l31 141q4 12 14.5 22.5t24.5 10.5h139q14 0 22.5 -10t4.5 -23l-31 -141q-8 -33 -39 -33h-139q-14 0 -22.5 9.5t-4.5 23.5zM874 1622l31 141q4 12 14.5 22.5t24.5 10.5h139 q14 0 22.5 -10t4.5 -23l-31 -141q-8 -33 -39 -33h-139q-14 0 -22.5 9.5t-4.5 23.5z" />
<glyph unicode="&#xdd;" horiz-adv-x="917" d="M209 1376q-4 23 10 40.5t35 17.5h119q27 0 33 -31l122 -635q2 -8 7.5 -9t9.5 7l362 637q16 31 45 31h140q20 0 30.5 -17.5t-4.5 -40.5l-530 -882l-96 -453q-4 -16 -18.5 -28.5t-31.5 -12.5h-114q-16 0 -26.5 12.5t-6.5 28.5l96 451zM560.5 1561.5q-5.5 15.5 4.5 25.5 l203 223q10 10 24.5 21.5t36.5 11.5h162q20 0 21.5 -16.5t-8.5 -26.5l-271 -229q-10 -10 -23.5 -17.5t-41.5 -7.5h-82q-20 0 -25.5 15.5z" />
<glyph unicode="&#xde;" horiz-adv-x="1064" d="M-10 41l286 1352q4 16 18.5 28.5t31.5 12.5h112q16 0 26.5 -12.5t6.5 -28.5l-35 -164q-6 -20 17 -21h174q88 0 159.5 -33.5t117.5 -92t62.5 -137.5t-1.5 -167l-23 -102q-18 -90 -55 -168t-97.5 -136.5t-150.5 -92t-217 -33.5h-174q-20 0 -27 -21l-39 -184 q-4 -16 -18 -28.5t-31 -12.5h-113q-16 0 -25 12.5t-5 28.5zM272 461q-4 -20 17 -21h174q61 0 109.5 18.5t84 51.5t58 75t33.5 91l22 102q10 49 7 91t-24.5 75t-62.5 51.5t-106 18.5h-174q-20 0 -25 -21z" />
<glyph unicode="&#xdf;" d="M51 41l215 1018q41 188 161 291.5t306 103.5q80 0 143.5 -23.5t107.5 -66.5t68.5 -102.5t24.5 -131.5q0 -111 -54 -198.5t-132 -153.5q-12 -10 -17.5 -23.5t5.5 -25.5q43 -47 68.5 -102.5t25.5 -130.5q0 -109 -38 -200t-107.5 -156.5t-166 -102.5t-215.5 -37h-40 q-16 0 -26.5 12.5t-6.5 28.5l20 102q4 16 19.5 28.5t31.5 12.5h41q66 0 121.5 22.5t95 62.5t61 96.5t21.5 123.5q0 66 -45 117t-149 51h-25q-16 0 -26.5 12.5t-6.5 28.5l21 101q4 16 19.5 28.5t31.5 12.5h25q59 0 108 22.5t83 59t52.5 85t18.5 99.5q0 61 -43 112.5 t-133 51.5q-49 0 -93 -16.5t-78 -46t-57.5 -67.5t-31.5 -81l-215 -1018q-4 -16 -18.5 -28.5t-31.5 -12.5h-106q-16 0 -26.5 12.5t-6.5 28.5z" />
<glyph unicode="&#xe0;" horiz-adv-x="1036" d="M88 381q0 123 38 240.5t106.5 212t166 151.5t215.5 57q86 0 136.5 -29.5t76.5 -64.5q8 -10 14.5 -18t16.5 -8q12 0 21 16l26 66q4 12 14.5 16t20.5 4h76q16 0 26.5 -12.5t6.5 -28.5l-203 -942q-4 -16 -18.5 -28.5t-30.5 -12.5h-64q-18 0 -28 14q-4 6 -4.5 17.5t-0.5 23 t-2 19.5t-10 8q-12 0 -29.5 -16.5t-46 -35t-70.5 -34.5t-104 -16q-78 0 -142.5 29.5t-110.5 81.5t-71.5 126t-25.5 164zM276 381q0 -35 7.5 -73t28 -70.5t56 -53t93.5 -20.5q45 0 96 17.5t97 63.5t83.5 128t57.5 213q20 133 -23 203.5t-154 70.5q-76 0 -139 -39t-108 -105.5 t-70 -153.5t-25 -181zM451 1452q-8 10 2 26.5t30 16.5h162q23 0 32 -11t13 -22l109 -223q6 -10 -5.5 -25.5t-31.5 -15.5h-82q-29 0 -39 7t-18 18z" />
<glyph unicode="&#xe1;" horiz-adv-x="1036" d="M88 381q0 123 38 240.5t106.5 212t166 151.5t215.5 57q86 0 136.5 -29.5t76.5 -64.5q8 -10 14.5 -18t16.5 -8q12 0 21 16l26 66q4 12 14.5 16t20.5 4h76q16 0 26.5 -12.5t6.5 -28.5l-203 -942q-4 -16 -18.5 -28.5t-30.5 -12.5h-64q-18 0 -28 14q-4 6 -4.5 17.5t-0.5 23 t-2 19.5t-10 8q-12 0 -29.5 -16.5t-46 -35t-70.5 -34.5t-104 -16q-78 0 -142.5 29.5t-110.5 81.5t-71.5 126t-25.5 164zM276 381q0 -35 7.5 -73t28 -70.5t56 -53t93.5 -20.5q45 0 96 17.5t97 63.5t83.5 128t57.5 213q20 133 -23 203.5t-154 70.5q-76 0 -139 -39t-108 -105.5 t-70 -153.5t-25 -181zM583 1213.5q-5 15.5 5 25.5l203 223q10 10 24 21.5t37 11.5h162q20 0 21 -16.5t-9 -26.5l-270 -229q-10 -10 -23.5 -17.5t-42.5 -7.5h-82q-20 0 -25 15.5z" />
<glyph unicode="&#xe2;" horiz-adv-x="1036" d="M88 381q0 123 38 240.5t106.5 212t166 151.5t215.5 57q86 0 136.5 -29.5t76.5 -64.5q8 -10 14.5 -18t16.5 -8q12 0 21 16l26 66q4 12 14.5 16t20.5 4h76q16 0 26.5 -12.5t6.5 -28.5l-203 -942q-4 -16 -18.5 -28.5t-30.5 -12.5h-64q-18 0 -28 14q-4 6 -4.5 17.5t-0.5 23 t-2 19.5t-10 8q-12 0 -29.5 -16.5t-46 -35t-70.5 -34.5t-104 -16q-78 0 -142.5 29.5t-110.5 81.5t-71.5 126t-25.5 164zM276 381q0 -35 7.5 -73t28 -70.5t56 -53t93.5 -20.5q45 0 96 17.5t97 63.5t83.5 128t57.5 213q20 133 -23 203.5t-154 70.5q-76 0 -139 -39t-108 -105.5 t-70 -153.5t-25 -181zM375 1214.5q-2 16.5 8 26.5l270 229q10 10 24.5 17.5t43.5 7.5h86q27 0 36 -7t17 -18l172 -229q8 -10 -1 -26.5t-30 -16.5h-110q-23 0 -36 11.5t-21 21.5l-82 100q-12 14 -29 0l-125 -100q-10 -10 -28.5 -21.5t-41.5 -11.5h-131q-20 0 -22 16.5z" />
<glyph unicode="&#xe3;" horiz-adv-x="1036" d="M88 381q0 123 38 240.5t106.5 212t166 151.5t215.5 57q86 0 136.5 -29.5t76.5 -64.5q8 -10 14.5 -18t16.5 -8q12 0 21 16l26 66q4 12 14.5 16t20.5 4h76q16 0 26.5 -12.5t6.5 -28.5l-203 -942q-4 -16 -18.5 -28.5t-30.5 -12.5h-64q-18 0 -28 14q-4 6 -4.5 17.5t-0.5 23 t-2 19.5t-10 8q-12 0 -29.5 -16.5t-46 -35t-70.5 -34.5t-104 -16q-78 0 -142.5 29.5t-110.5 81.5t-71.5 126t-25.5 164zM276 381q0 -35 7.5 -73t28 -70.5t56 -53t93.5 -20.5q45 0 96 17.5t97 63.5t83.5 128t57.5 213q20 133 -23 203.5t-154 70.5q-76 0 -139 -39t-108 -105.5 t-70 -153.5t-25 -181zM422 1266l16 82q8 41 57.5 72.5t110.5 31.5q49 0 79 -8t56.5 -17.5t57.5 -17.5t84 -8q39 0 62.5 13t39.5 30q16 16 33.5 8t11.5 -37l-16 -82q-8 -41 -57.5 -72.5t-110.5 -31.5q-49 0 -79 8t-56.5 17.5t-58 17.5t-83.5 8q-35 0 -57.5 -11.5t-44.5 -31.5 q-16 -14 -33.5 -7t-11.5 36z" />
<glyph unicode="&#xe4;" horiz-adv-x="1036" d="M88 381q0 123 38 240.5t106.5 212t166 151.5t215.5 57q86 0 136.5 -29.5t76.5 -64.5q8 -10 14.5 -18t16.5 -8q12 0 21 16l26 66q4 12 14.5 16t20.5 4h76q16 0 26.5 -12.5t6.5 -28.5l-203 -942q-4 -16 -18.5 -28.5t-30.5 -12.5h-64q-18 0 -28 14q-4 6 -4.5 17.5t-0.5 23 t-2 19.5t-10 8q-12 0 -29.5 -16.5t-46 -35t-70.5 -34.5t-104 -16q-78 0 -142.5 29.5t-110.5 81.5t-71.5 126t-25.5 164zM276 381q0 -35 7.5 -73t28 -70.5t56 -53t93.5 -20.5q45 0 96 17.5t97 63.5t83.5 128t57.5 213q20 133 -23 203.5t-154 70.5q-76 0 -139 -39t-108 -105.5 t-70 -153.5t-25 -181zM461 1274l31 141q4 12 14 22.5t24 10.5h140q14 0 22 -10.5t4 -22.5l-30 -141q-8 -33 -39 -33h-140q-14 0 -22 9.5t-4 23.5zM811 1274l31 141q4 12 14 22.5t25 10.5h139q14 0 22.5 -10.5t4.5 -22.5l-31 -141q-8 -33 -39 -33h-139q-14 0 -22.5 9.5 t-4.5 23.5z" />
<glyph unicode="&#xe5;" horiz-adv-x="970" d="M23 381q0 123 37.5 240.5t106.5 212t166 151.5t216 57q86 0 136 -29.5t77 -64.5q8 -10 14 -18t17 -8q12 0 20 16l27 66q4 12 14 16t20 4h76q16 0 26.5 -12.5t6.5 -28.5l-203 -942q-4 -16 -18 -28.5t-31 -12.5h-63q-18 0 -29 14q-4 6 -4 17.5v23t-2 19.5t-10 8 q-12 0 -30 -16.5t-46.5 -35t-70.5 -34.5t-103 -16q-78 0 -142.5 29.5t-110.5 81.5t-71.5 126t-25.5 164zM211 381q0 -35 7 -73t27.5 -70.5t56.5 -53t93 -20.5q45 0 96.5 17.5t97.5 63.5t83 128t57 213q20 133 -22.5 203.5t-153.5 70.5q-76 0 -139.5 -39t-108.5 -105.5 t-69.5 -153.5t-24.5 -181zM492 1329q0 55 20 103.5t56 85t82 58t100 21.5q94 0 148 -51t54 -135q0 -53 -21.5 -100t-56 -84t-82 -58.5t-98.5 -21.5q-92 0 -147 52t-55 130zM639 1356q0 -29 17.5 -47.5t48.5 -18.5q37 0 70.5 28t33.5 71q0 27 -20.5 46t-49.5 19 q-35 0 -67.5 -27.5t-32.5 -70.5z" />
<glyph unicode="&#xe6;" horiz-adv-x="1652" d="M90 279q0 84 33 147t89 105t131 63.5t157 21.5h260q20 0 24 21l17 70q10 41 0 71.5t-33 50t-57.5 29.5t-73.5 10q-25 0 -59.5 -4t-67.5 -17t-58.5 -36t-33.5 -59q-4 -27 -21.5 -31t-31.5 -4h-93q-43 0 -32 41q14 72 54 125t98.5 89t131 54t152.5 18q94 0 155.5 -39.5 t90.5 -80.5q12 -16 28.5 -15.5t32.5 15.5q59 49 143 84.5t170 35.5t154 -32.5t111 -88t58 -130t-1 -158.5l-29 -141q-4 -16 -19.5 -28.5t-31.5 -12.5h-586q-20 0 -24 -21q-29 -141 22 -204.5t158 -63.5q82 0 145.5 36t94.5 93q10 20 25.5 27.5t29.5 7.5h104q16 0 24.5 -9.5 t0.5 -31.5q-47 -139 -166 -223t-297 -84q-90 0 -154.5 28.5t-109.5 75.5q-33 33 -78 -2q-57 -43 -129 -72.5t-176 -29.5q-82 0 -143.5 25.5t-103.5 67.5t-63.5 95t-21.5 111zM276 287q0 -68 49.5 -102.5t125.5 -34.5q109 0 189.5 55t102.5 160l15 67q4 20 -17 21h-276 q-37 0 -72 -7.5t-60.5 -27t-41 -51t-15.5 -80.5zM975 637q-4 -20 16 -21h426q20 0 25 21q23 106 -24 164.5t-158 58.5q-53 0 -100.5 -17.5t-85.5 -47t-63.5 -70.5t-35.5 -88z" />
<glyph unicode="&#xe7;" horiz-adv-x="978" d="M96 369q8 61 23.5 143t36.5 143q25 74 59.5 143.5t88.5 124t131 88t186 33.5q90 0 160.5 -26.5t118.5 -73.5t68.5 -110.5t10.5 -137.5q-4 -16 -15.5 -28.5t-27.5 -12.5h-111q-14 0 -25.5 8.5t-6.5 24.5q10 33 1.5 64.5t-31 55t-59 38t-83.5 14.5q-59 0 -105.5 -16.5 t-80.5 -45t-55.5 -65.5t-33.5 -78q-18 -63 -36.5 -143t-28.5 -143q-10 -82 37 -143.5t153 -61.5q98 0 161 46t83 124q4 20 18.5 27.5t28.5 7.5h106q16 0 26.5 -12.5t6.5 -28.5q-12 -61 -45 -124t-86 -113t-128 -80.5t-171 -30.5q-92 0 -167 30.5t-125 82.5t-72.5 124 t-10.5 152zM194.5 -398.5q-6.5 11.5 2.5 25.5l131 248q14 33 45 33h98q20 0 25.5 -11.5t-0.5 -25.5l-111 -248q-14 -33 -45 -33h-119q-20 0 -26.5 11.5z" />
<glyph unicode="&#xe8;" horiz-adv-x="1015" d="M96 369q6 61 24.5 143t37.5 143q23 80 65.5 152t103 124t135.5 82.5t161 30.5q111 0 186.5 -34.5t118.5 -91t55 -130t-2 -153.5l-29 -141q-4 -16 -19 -28.5t-32 -12.5h-586q-18 0 -24 -21q-35 -133 12 -200.5t170 -67.5q80 0 143.5 36t94.5 93q10 20 25.5 27.5t29.5 7.5 h104q16 0 24.5 -9.5t0.5 -31.5q-25 -70 -69 -126.5t-101 -96t-122.5 -62t-131.5 -22.5q-88 0 -160.5 26.5t-123 75.5t-75 121.5t-16.5 165.5zM340 637q-4 -20 14 -21h426q23 0 27 21q25 104 -19 163.5t-165 59.5q-53 0 -100.5 -17.5t-84.5 -48t-62.5 -71.5t-35.5 -86z M479 1452q-8 10 2.5 26.5t30.5 16.5h162q23 0 32 -11t13 -22l108 -223q6 -10 -5 -25.5t-31 -15.5h-82q-29 0 -39.5 7t-18.5 18z" />
<glyph unicode="&#xe9;" horiz-adv-x="1048" d="M96 369q6 61 24.5 143t37.5 143q23 80 65.5 152t103 124t135.5 82.5t161 30.5q111 0 186.5 -34.5t118.5 -91t55 -130t-2 -153.5l-29 -141q-4 -16 -19 -28.5t-32 -12.5h-586q-18 0 -24 -21q-35 -133 12 -200.5t170 -67.5q80 0 143.5 36t94.5 93q10 20 25.5 27.5t29.5 7.5 h104q16 0 24.5 -9.5t0.5 -31.5q-25 -70 -69 -126.5t-101 -96t-122.5 -62t-131.5 -22.5q-88 0 -160.5 26.5t-123 75.5t-75 121.5t-16.5 165.5zM340 637q-4 -20 14 -21h426q23 0 27 21q25 104 -19 163.5t-165 59.5q-53 0 -100.5 -17.5t-84.5 -48t-62.5 -71.5t-35.5 -86z M570.5 1213.5q-5.5 15.5 4.5 25.5l203 223q10 10 24.5 21.5t37.5 11.5h161q20 0 21.5 -16.5t-8.5 -26.5l-271 -229q-10 -10 -23 -17.5t-42 -7.5h-82q-20 0 -25.5 15.5z" />
<glyph unicode="&#xea;" horiz-adv-x="1013" d="M96 369q6 61 24.5 143t37.5 143q23 80 65.5 152t103 124t135.5 82.5t161 30.5q111 0 186.5 -34.5t118.5 -91t55 -130t-2 -153.5l-29 -141q-4 -16 -19 -28.5t-32 -12.5h-586q-18 0 -24 -21q-35 -133 12 -200.5t170 -67.5q80 0 143.5 36t94.5 93q10 20 25.5 27.5t29.5 7.5 h104q16 0 24.5 -9.5t0.5 -31.5q-25 -70 -69 -126.5t-101 -96t-122.5 -62t-131.5 -22.5q-88 0 -160.5 26.5t-123 75.5t-75 121.5t-16.5 165.5zM340 637q-4 -20 14 -21h426q23 0 27 21q25 104 -19 163.5t-165 59.5q-53 0 -100.5 -17.5t-84.5 -48t-62.5 -71.5t-35.5 -86z M383.5 1214.5q-2.5 16.5 7.5 26.5l271 229q10 10 24 17.5t43 7.5h86q27 0 36 -7t17 -18l172 -229q8 -10 -1 -26.5t-29 -16.5h-111q-23 0 -36 11.5t-21 21.5l-82 100q-12 14 -29 0l-125 -100q-10 -10 -28.5 -21.5t-40.5 -11.5h-131q-20 0 -22.5 16.5z" />
<glyph unicode="&#xeb;" horiz-adv-x="1013" d="M96 369q6 61 24.5 143t37.5 143q23 80 65.5 152t103 124t135.5 82.5t161 30.5q111 0 186.5 -34.5t118.5 -91t55 -130t-2 -153.5l-29 -141q-4 -16 -19 -28.5t-32 -12.5h-586q-18 0 -24 -21q-35 -133 12 -200.5t170 -67.5q80 0 143.5 36t94.5 93q10 20 25.5 27.5t29.5 7.5 h104q16 0 24.5 -9.5t0.5 -31.5q-25 -70 -69 -126.5t-101 -96t-122.5 -62t-131.5 -22.5q-88 0 -160.5 26.5t-123 75.5t-75 121.5t-16.5 165.5zM340 637q-4 -20 14 -21h426q23 0 27 21q25 104 -19 163.5t-165 59.5q-53 0 -100.5 -17.5t-84.5 -48t-62.5 -71.5t-35.5 -86z M463 1274l31 141q4 12 14 22.5t24 10.5h140q14 0 22 -10.5t4 -22.5l-30 -141q-8 -33 -39 -33h-140q-14 0 -22 9.5t-4 23.5zM813 1274l31 141q4 12 14 22.5t25 10.5h139q14 0 22.5 -10.5t4.5 -22.5l-31 -141q-8 -33 -39 -33h-139q-14 0 -22.5 9.5t-4.5 23.5z" />
<glyph unicode="&#xec;" horiz-adv-x="389" d="M-10 41l198 942q4 16 19.5 28.5t32.5 12.5h106q16 0 25.5 -12.5t5.5 -28.5l-199 -942q-4 -16 -19.5 -28.5t-31.5 -12.5h-107q-16 0 -25 12.5t-5 28.5zM63 1452q-8 10 2.5 26.5t30.5 16.5h162q23 0 32 -11t13 -22l109 -223q6 -10 -5.5 -25.5t-31.5 -15.5h-82q-29 0 -39 7 t-18 18z" />
<glyph unicode="&#xed;" horiz-adv-x="389" d="M-10 41l198 942q4 16 19.5 28.5t32.5 12.5h106q16 0 25.5 -12.5t5.5 -28.5l-199 -942q-4 -16 -19.5 -28.5t-31.5 -12.5h-107q-16 0 -25 12.5t-5 28.5zM195.5 1213.5q-5.5 15.5 5.5 25.5l202 223q10 10 24.5 21.5t37.5 11.5h162q20 0 21 -16.5t-9 -26.5l-270 -229 q-10 -10 -23.5 -17.5t-42.5 -7.5h-82q-20 0 -25.5 15.5z" />
<glyph unicode="&#xee;" horiz-adv-x="389" d="M-10 41l198 942q4 16 19.5 28.5t32.5 12.5h106q16 0 25.5 -12.5t5.5 -28.5l-199 -942q-4 -16 -19.5 -28.5t-31.5 -12.5h-107q-16 0 -25 12.5t-5 28.5zM29 1214.5q-2 16.5 8 26.5l270 229q10 10 24.5 17.5t43.5 7.5h86q27 0 36 -7t17 -18l172 -229q8 -10 -1 -26.5 t-30 -16.5h-110q-23 0 -36 11.5t-22 21.5l-81 100q-12 14 -29 0l-125 -100q-10 -10 -28.5 -21.5t-41.5 -11.5h-131q-20 0 -22 16.5z" />
<glyph unicode="&#xef;" horiz-adv-x="389" d="M-10 41l198 942q4 16 19.5 28.5t32.5 12.5h106q16 0 25.5 -12.5t5.5 -28.5l-199 -942q-4 -16 -19.5 -28.5t-31.5 -12.5h-107q-16 0 -25 12.5t-5 28.5zM66 1274l30 141q4 12 14.5 22.5t24.5 10.5h139q14 0 22.5 -10.5t4.5 -22.5l-31 -141q-8 -33 -39 -33h-139 q-14 0 -22.5 9.5t-3.5 23.5zM416 1274l30 141q4 12 14.5 22.5t24.5 10.5h140q14 0 22 -10.5t4 -22.5l-30 -141q-8 -33 -39 -33h-140q-14 0 -22 9.5t-4 23.5z" />
<glyph unicode="&#xf0;" horiz-adv-x="1026" d="M18 369q4 31 8.5 52t8.5 39.5t9 40t13 52.5q25 80 68 151.5t105.5 124t145.5 83t185 30.5q61 0 100 -15.5t68 -33.5q23 -12 23 8q8 59 13 116.5t-9 100.5q-4 10 -9.5 11t-9.5 -3l-182 -94q-18 -10 -36.5 -2t-14.5 31l14 63q4 16 9 31.5t34 26.5l74 26q16 8 13 19.5 t-15 15.5q-16 4 -44 5t-46 1h-74q-16 0 -26.5 12.5t-6.5 28.5l21 103q4 16 19.5 28.5t31.5 12.5h74q88 0 149.5 -19.5t104.5 -56.5q4 -2 7 -2t11 4l164 84q16 10 32.5 1t12.5 -30l-19 -84q-4 -20 -12 -29.5t-24 -19.5l-72 -39q-8 -4 -13 -10t-1 -10q23 -70 27.5 -160 t-3.5 -203q-8 -123 -26.5 -245.5t-59.5 -245.5q-27 -80 -69.5 -152t-104 -124t-143.5 -82.5t-187 -30.5q-92 0 -159.5 30.5t-110.5 82.5t-60.5 124t-7.5 152zM203 369q-10 -82 38 -143.5t154 -61.5t181 61.5t98 143.5q8 31 14 52t10 39.5t7.5 40t7.5 52.5q12 82 -36 143.5 t-155 61.5q-106 0 -181 -61.5t-99 -143.5q-8 -31 -13.5 -52.5t-9.5 -40t-8 -40t-8 -51.5z" />
<glyph unicode="&#xf1;" horiz-adv-x="1099" d="M53 41l199 942q4 16 19.5 28.5t31.5 12.5h86q27 0 31 -20q4 -14 12 -25.5t27 -11.5q23 0 46 12t51 26.5t62.5 26.5t77.5 12q84 0 149.5 -28.5t105.5 -80.5t54.5 -124t-4.5 -156l-129 -614q-4 -16 -19 -28.5t-32 -12.5h-102q-16 0 -25.5 12.5t-5.5 28.5l129 614 q18 90 -20.5 147.5t-149.5 57.5q-47 0 -93 -13t-84 -39t-65.5 -61.5t-35.5 -80.5l-131 -625q-4 -16 -19.5 -28.5t-32.5 -12.5h-102q-16 0 -25.5 12.5t-5.5 28.5zM451 1266l16 82q8 41 57 72.5t111 31.5q49 0 78.5 -8t56.5 -17.5t57.5 -17.5t83.5 -8q39 0 62.5 13t40.5 30 q16 16 33.5 8t11.5 -37l-17 -82q-8 -41 -57 -72.5t-111 -31.5q-49 0 -78.5 8t-56 17.5t-58.5 17.5t-83 8q-35 0 -57.5 -11.5t-44.5 -31.5q-16 -14 -34 -7t-11 36z" />
<glyph unicode="&#xf2;" d="M96 369q8 61 23.5 143t36.5 143q25 74 57.5 143.5t85.5 124t131 88t191 33.5q92 0 166.5 -30.5t125 -82.5t73 -124t9.5 -152q-8 -61 -24.5 -143t-34.5 -143q-20 -68 -55 -136.5t-90.5 -125t-134 -92t-185.5 -35.5q-92 0 -167 30.5t-125 82.5t-72.5 124t-10.5 152z M281 369q-10 -82 37 -143.5t153 -61.5q113 0 182.5 61.5t91.5 143.5q18 63 37 143t29 143q10 82 -37 143.5t-153 61.5q-113 0 -182.5 -61.5t-92.5 -143.5q-18 -63 -36.5 -143t-28.5 -143zM504 1452q-8 10 2 26.5t31 16.5h161q23 0 32 -11t13 -22l109 -223q6 -10 -5 -25.5 t-32 -15.5h-82q-29 0 -39 7t-18 18z" />
<glyph unicode="&#xf3;" d="M96 369q8 61 23.5 143t36.5 143q25 74 57.5 143.5t85.5 124t131 88t191 33.5q92 0 166.5 -30.5t125 -82.5t73 -124t9.5 -152q-8 -61 -24.5 -143t-34.5 -143q-20 -68 -55 -136.5t-90.5 -125t-134 -92t-185.5 -35.5q-92 0 -167 30.5t-125 82.5t-72.5 124t-10.5 152z M281 369q-10 -82 37 -143.5t153 -61.5q113 0 182.5 61.5t91.5 143.5q18 63 37 143t29 143q10 82 -37 143.5t-153 61.5q-113 0 -182.5 -61.5t-92.5 -143.5q-18 -63 -36.5 -143t-28.5 -143zM572.5 1213.5q-5.5 15.5 5.5 25.5l202 223q10 10 24.5 21.5t37.5 11.5h162 q20 0 21 -16.5t-9 -26.5l-271 -229q-10 -10 -23 -17.5t-42 -7.5h-82q-20 0 -25.5 15.5z" />
<glyph unicode="&#xf4;" d="M96 369q8 61 23.5 143t36.5 143q25 74 57.5 143.5t85.5 124t131 88t191 33.5q92 0 166.5 -30.5t125 -82.5t73 -124t9.5 -152q-8 -61 -24.5 -143t-34.5 -143q-20 -68 -55 -136.5t-90.5 -125t-134 -92t-185.5 -35.5q-92 0 -167 30.5t-125 82.5t-72.5 124t-10.5 152z M281 369q-10 -82 37 -143.5t153 -61.5q113 0 182.5 61.5t91.5 143.5q18 63 37 143t29 143q10 82 -37 143.5t-153 61.5q-113 0 -182.5 -61.5t-92.5 -143.5q-18 -63 -36.5 -143t-28.5 -143zM387.5 1214.5q-2.5 16.5 7.5 26.5l271 229q10 10 24.5 17.5t42.5 7.5h86q27 0 36 -7 t17 -18l172 -229q8 -10 -1 -26.5t-29 -16.5h-111q-23 0 -36 11.5t-21 21.5l-82 100q-12 14 -29 0l-125 -100q-10 -10 -28.5 -21.5t-40.5 -11.5h-131q-20 0 -22.5 16.5z" />
<glyph unicode="&#xf5;" d="M96 369q8 61 23.5 143t36.5 143q25 74 57.5 143.5t85.5 124t131 88t191 33.5q92 0 166.5 -30.5t125 -82.5t73 -124t9.5 -152q-8 -61 -24.5 -143t-34.5 -143q-20 -68 -55 -136.5t-90.5 -125t-134 -92t-185.5 -35.5q-92 0 -167 30.5t-125 82.5t-72.5 124t-10.5 152z M281 369q-10 -82 37 -143.5t153 -61.5q113 0 182.5 61.5t91.5 143.5q18 63 37 143t29 143q10 82 -37 143.5t-153 61.5q-113 0 -182.5 -61.5t-92.5 -143.5q-18 -63 -36.5 -143t-28.5 -143zM434 1266l17 82q8 41 57 72.5t110 31.5q49 0 79 -8t56.5 -17.5t57.5 -17.5t84 -8 q39 0 62.5 13t39.5 30q16 16 34 8t11 -37l-16 -82q-8 -41 -57 -72.5t-111 -31.5q-49 0 -78.5 8t-56.5 17.5t-58.5 17.5t-82.5 8q-35 0 -57.5 -11.5t-45.5 -31.5q-16 -14 -33.5 -7t-11.5 36z" />
<glyph unicode="&#xf6;" d="M96 369q8 61 23.5 143t36.5 143q25 74 57.5 143.5t85.5 124t131 88t191 33.5q92 0 166.5 -30.5t125 -82.5t73 -124t9.5 -152q-8 -61 -24.5 -143t-34.5 -143q-20 -68 -55 -136.5t-90.5 -125t-134 -92t-185.5 -35.5q-92 0 -167 30.5t-125 82.5t-72.5 124t-10.5 152z M281 369q-10 -82 37 -143.5t153 -61.5q113 0 182.5 61.5t91.5 143.5q18 63 37 143t29 143q10 82 -37 143.5t-153 61.5q-113 0 -182.5 -61.5t-92.5 -143.5q-18 -63 -36.5 -143t-28.5 -143zM444 1274l31 141q4 12 14.5 22.5t24.5 10.5h139q14 0 22.5 -10.5t4.5 -22.5l-31 -141 q-8 -33 -39 -33h-139q-14 0 -22.5 9.5t-4.5 23.5zM795 1274l30 141q4 12 14.5 22.5t24.5 10.5h140q14 0 22 -10.5t4 -22.5l-31 -141q-8 -33 -38 -33h-140q-14 0 -22 9.5t-4 23.5z" />
<glyph unicode="&#xf7;" horiz-adv-x="1064" d="M92 455l23 112q4 16 19.5 28.5t31.5 12.5h778q16 0 25.5 -12t5.5 -29l-23 -112q-4 -16 -19 -28.5t-32 -12.5h-778q-16 0 -25.5 12t-5.5 29zM322 41l34 170q4 16 19.5 28.5t32.5 12.5h170q16 0 25 -12.5t5 -28.5l-35 -170q-4 -16 -19 -28.5t-32 -12.5h-170 q-16 0 -25.5 12.5t-4.5 28.5zM481 793l35 170q4 16 19.5 28.5t31.5 12.5h170q16 0 25.5 -12.5t5.5 -28.5l-35 -170q-4 -16 -19.5 -28.5t-31.5 -12.5h-170q-16 0 -25.5 12t-5.5 29z" />
<glyph unicode="&#xf8;" d="M-73.5 22.5q-8.5 22.5 14.5 43.5l120 116q10 10 9.5 14.5t-0.5 8.5q-27 74 -15 164q8 61 23.5 143t36.5 143q25 74 57.5 143.5t85.5 124t131 88t191 33.5q80 0 146.5 -23.5t115.5 -64.5q4 -2 6 -4t12 6l39 35q31 31 57 31h97q20 0 27 -21.5t-13 -39.5l-121 -113 q-10 -10 -9 -17.5t1 -11.5q29 -76 16 -166q-8 -61 -24.5 -143t-34.5 -143q-20 -68 -55 -136.5t-90.5 -125t-134 -92t-185.5 -35.5q-82 0 -149.5 23.5t-116.5 64.5q-4 2 -7 5t-12 -7l-34 -35q-14 -14 -26.5 -22.5t-33.5 -8.5h-96q-20 0 -28.5 22.5zM242 373q-2 -4 2 -7.5 t10 3.5l453 434q6 6 6 12t-4 8q-23 16 -55.5 26.5t-73.5 10.5q-113 0 -181.5 -61.5t-93.5 -143.5q-8 -31 -17 -66.5t-18.5 -73.5t-16.5 -75t-11 -67zM299 209q0 -6 4 -8q23 -16 54.5 -26.5t72.5 -10.5q113 0 181.5 61.5t93.5 143.5q16 61 36.5 139t28.5 141q2 6 -2 13.5 t-14 -3.5l-449 -438q-6 -6 -6 -12z" />
<glyph unicode="&#xf9;" horiz-adv-x="1054" d="M110.5 213q-14.5 72 4.5 156l129 614q4 16 19.5 28.5t31.5 12.5h102q16 0 25.5 -12.5t5.5 -28.5l-129 -614q-18 -90 20.5 -147.5t149.5 -57.5q47 0 93 13t84 39t64.5 61.5t37.5 80.5l131 625q4 16 19 28.5t32 12.5h102q16 0 25.5 -12.5t5.5 -28.5l-199 -942 q-4 -16 -19.5 -28.5t-31.5 -12.5h-86q-27 0 -31 20q-4 12 -14 24.5t-29 12.5q-23 0 -45 -12t-50 -26.5t-61.5 -26.5t-76.5 -12q-84 0 -149.5 28.5t-105.5 80.5t-54.5 124zM518 1452q-8 10 2 26.5t31 16.5h162q23 0 32 -11t13 -22l108 -223q6 -10 -5 -25.5t-32 -15.5h-81 q-29 0 -39.5 7t-18.5 18z" />
<glyph unicode="&#xfa;" horiz-adv-x="1054" d="M110.5 213q-14.5 72 4.5 156l129 614q4 16 19.5 28.5t31.5 12.5h102q16 0 25.5 -12.5t5.5 -28.5l-129 -614q-18 -90 20.5 -147.5t149.5 -57.5q47 0 93 13t84 39t64.5 61.5t37.5 80.5l131 625q4 16 19 28.5t32 12.5h102q16 0 25.5 -12.5t5.5 -28.5l-199 -942 q-4 -16 -19.5 -28.5t-31.5 -12.5h-86q-27 0 -31 20q-4 12 -14 24.5t-29 12.5q-23 0 -45 -12t-50 -26.5t-61.5 -26.5t-76.5 -12q-84 0 -149.5 28.5t-105.5 80.5t-54.5 124zM527.5 1213.5q-5.5 15.5 4.5 25.5l203 223q10 10 24.5 21.5t37.5 11.5h161q20 0 21.5 -16.5 t-8.5 -26.5l-271 -229q-10 -10 -23 -17.5t-42 -7.5h-82q-20 0 -25.5 15.5z" />
<glyph unicode="&#xfb;" horiz-adv-x="1054" d="M110.5 213q-14.5 72 4.5 156l129 614q4 16 19.5 28.5t31.5 12.5h102q16 0 25.5 -12.5t5.5 -28.5l-129 -614q-18 -90 20.5 -147.5t149.5 -57.5q47 0 93 13t84 39t64.5 61.5t37.5 80.5l131 625q4 16 19 28.5t32 12.5h102q16 0 25.5 -12.5t5.5 -28.5l-199 -942 q-4 -16 -19.5 -28.5t-31.5 -12.5h-86q-27 0 -31 20q-4 12 -14 24.5t-29 12.5q-23 0 -45 -12t-50 -26.5t-61.5 -26.5t-76.5 -12q-84 0 -149.5 28.5t-105.5 80.5t-54.5 124zM381 1214.5q-2 16.5 8 26.5l270 229q10 10 24.5 17.5t43.5 7.5h86q27 0 36 -7t17 -18l172 -229 q8 -10 -1 -26.5t-29 -16.5h-111q-23 0 -36 11.5t-21 21.5l-82 100q-12 14 -29 0l-125 -100q-10 -10 -28.5 -21.5t-40.5 -11.5h-132q-20 0 -22 16.5z" />
<glyph unicode="&#xfc;" horiz-adv-x="1054" d="M110.5 213q-14.5 72 4.5 156l129 614q4 16 19.5 28.5t31.5 12.5h102q16 0 25.5 -12.5t5.5 -28.5l-129 -614q-18 -90 20.5 -147.5t149.5 -57.5q47 0 93 13t84 39t64.5 61.5t37.5 80.5l131 625q4 16 19 28.5t32 12.5h102q16 0 25.5 -12.5t5.5 -28.5l-199 -942 q-4 -16 -19.5 -28.5t-31.5 -12.5h-86q-27 0 -31 20q-4 12 -14 24.5t-29 12.5q-23 0 -45 -12t-50 -26.5t-61.5 -26.5t-76.5 -12q-84 0 -149.5 28.5t-105.5 80.5t-54.5 124zM440 1274l31 141q4 12 14.5 22.5t24.5 10.5h139q14 0 22.5 -10.5t4.5 -22.5l-31 -141q-8 -33 -39 -33 h-139q-14 0 -22.5 9.5t-4.5 23.5zM791 1274l30 141q4 12 14.5 22.5t24.5 10.5h139q14 0 22.5 -10.5t4.5 -22.5l-31 -141q-8 -33 -39 -33h-139q-14 0 -22.5 9.5t-3.5 23.5z" />
<glyph unicode="&#xfd;" horiz-adv-x="946" d="M-82 -369l23 97q4 16 18 28.5t31 12.5h33q63 0 116.5 52t89.5 118l68 116q10 16 8 27l-158 895q-4 16 10.5 31.5t39.5 15.5h114q27 0 33 -31l111 -665q2 -8 7 -9.5t9 9.5l379 665q16 31 45 31h131q25 0 32 -15.5t-3 -31.5l-670 -1120q-35 -59 -73 -108.5t-85 -84.5 t-108.5 -54.5t-145.5 -19.5h-22q-16 0 -26.5 12.5t-6.5 28.5zM533.5 1213.5q-5.5 15.5 5.5 25.5l202 223q10 10 24.5 21.5t37.5 11.5h162q20 0 21 -16.5t-9 -26.5l-270 -229q-10 -10 -23.5 -17.5t-42.5 -7.5h-82q-20 0 -25.5 15.5z" />
<glyph unicode="&#xfe;" horiz-adv-x="1007" d="M-55 -369l374 1776q4 16 18.5 28.5t31.5 12.5h102q16 0 26.5 -12.5t6.5 -28.5l-78 -371q-4 -14 5 -28.5t32 -14.5q14 0 30.5 8.5t38 17.5t49 17t64.5 8q84 0 150.5 -32.5t111.5 -86t64.5 -124t9.5 -146.5q-8 -61 -23.5 -143t-35.5 -143q-25 -74 -60 -143.5t-89 -124 t-132 -88t-184 -33.5q-39 0 -71 8t-58.5 18t-46 18.5t-33.5 8.5q-20 0 -27.5 -12.5t-11.5 -26.5l-80 -363q-4 -16 -18.5 -28.5t-30.5 -12.5h-103q-16 0 -26 12.5t-6 28.5zM266 369q-10 -82 37 -143.5t154 -61.5q113 0 182 61.5t92 143.5q18 63 36.5 143t29.5 143 q10 82 -37 143.5t-154 61.5q-113 0 -182.5 -61.5t-91.5 -143.5q-18 -63 -37 -143t-29 -143z" />
<glyph unicode="&#xff;" horiz-adv-x="946" d="M-82 -369l23 97q4 16 18 28.5t31 12.5h33q63 0 116.5 52t89.5 118l68 116q10 16 8 27l-158 895q-4 16 10.5 31.5t39.5 15.5h114q27 0 33 -31l111 -665q0 -8 5 -8.5t11 8.5l379 665q16 31 45 31h131q25 0 32 -15.5t-3 -31.5l-670 -1120q-35 -59 -73 -108.5t-85 -84.5 t-108.5 -54.5t-145.5 -19.5h-22q-16 0 -26.5 12.5t-6.5 28.5zM373 1274l28 141q4 12 15.5 22.5t25.5 10.5h140q14 0 21 -10.5t3 -22.5l-28 -141q-8 -33 -41 -33h-140q-33 0 -24 33zM723 1274l29 141q4 12 15 22.5t26 10.5h139q14 0 21.5 -10.5t2.5 -22.5l-28 -141 q-8 -33 -41 -33h-139q-33 0 -25 33z" />
<glyph unicode="&#x152;" horiz-adv-x="1671" d="M119 410q6 61 18.5 142t30.5 166t38.5 165t41.5 141q29 84 75 161t112.5 136t157.5 94t208 35q121 0 207 -51q2 -2 10 -6t17 -7.5t16.5 -2.5t9.5 10q4 16 18.5 28.5t30.5 12.5h662q16 0 26 -12.5t6 -28.5l-24 -113q-4 -16 -18.5 -28.5t-30.5 -12.5h-488q-20 0 -24 -20 l-80 -369q-4 -20 16 -21h465q16 0 26.5 -12t6.5 -29l-25 -112q-4 -16 -18.5 -28.5t-30.5 -12.5h-465q-20 0 -24 -21l-86 -399q-4 -20 16 -20h491q16 0 26.5 -12.5t6.5 -28.5l-24 -113q-4 -16 -18.5 -28.5t-31.5 -12.5h-665q-16 0 -26.5 12.5t-6.5 28.5q2 8 -6 8t-20.5 -3 t-23.5 -8t-15 -7q-100 -47 -220 -47q-92 0 -164.5 29.5t-120.5 85t-70.5 134t-12.5 177.5zM313 410q-4 -45 7.5 -87t38 -74t69.5 -51.5t102 -19.5q104 0 189.5 60.5t126.5 171.5q20 63 41.5 143t39 164t31 164t17.5 143q4 45 -7.5 87t-37 74t-68.5 51t-104 19 q-100 0 -188.5 -59t-127.5 -172q-20 -63 -40.5 -143t-39 -164t-31 -164t-18.5 -143z" />
<glyph unicode="&#x153;" horiz-adv-x="1679" d="M98 369q8 61 25.5 143t34.5 143q25 80 65.5 152t102 124t144.5 82.5t192 30.5q55 0 97 -9t72.5 -24.5t53 -36t43.5 -40.5q31 -35 78 0q33 25 63.5 45t67.5 34.5t82 22.5t104 8q86 0 153.5 -32.5t110.5 -88t58.5 -130t-0.5 -158.5l-29 -141q-4 -16 -19.5 -28.5 t-31.5 -12.5h-586q-20 0 -25 -21q-29 -141 22.5 -204.5t158.5 -63.5q80 0 144 36t95 93q10 20 24.5 27.5t28.5 7.5h105q16 0 25.5 -9.5t1.5 -31.5q-23 -68 -63 -124.5t-97.5 -97t-133 -63t-169.5 -22.5q-90 0 -157 31.5t-112 78.5q-35 35 -77 0q-29 -23 -57.5 -42 t-64.5 -34.5t-83 -24.5t-111 -9q-92 0 -160.5 30.5t-111.5 82.5t-59.5 124t-4.5 152zM283 369q-10 -82 37 -143.5t153 -61.5q53 0 99 16.5t83 45t61.5 65.5t37.5 78q18 63 33.5 143t25.5 143q10 82 -37 143.5t-153 61.5q-53 0 -99.5 -16.5t-83.5 -45t-61.5 -65.5t-36.5 -78 q-18 -63 -33.5 -143t-25.5 -143zM1001 637q-4 -20 17 -21h426q20 0 24 21q23 106 -31.5 164.5t-150.5 58.5q-53 0 -100 -17.5t-85 -47t-63.5 -70.5t-36.5 -88z" />
<glyph unicode="&#x178;" horiz-adv-x="937" d="M219 1376q-4 23 10.5 40.5t34.5 17.5h119q27 0 33 -31l123 -635q2 -8 7 -9t9 7l363 637q16 31 45 31h139q20 0 30.5 -17.5t-4.5 -40.5l-530 -882l-96 -453q-4 -16 -18.5 -28.5t-30.5 -12.5h-115q-16 0 -26.5 12.5t-6.5 28.5l96 451zM416 1567l30 141q2 12 13.5 22.5 t25.5 10.5h140q14 0 21 -10.5t5 -22.5l-30 -141q-8 -33 -39 -33h-140q-14 0 -22 9t-4 24zM786 1567l31 141q2 12 13.5 22.5t25.5 10.5h139q14 0 21.5 -10.5t5.5 -22.5l-31 -141q-8 -33 -39 -33h-139q-14 0 -22.5 9t-4.5 24z" />
<glyph unicode="&#x2c6;" horiz-adv-x="1030" d="M340 1214.5q-2 16.5 8 26.5l270 229q10 10 24.5 17.5t43.5 7.5h86q27 0 36 -7t17 -18l172 -229q8 -10 -1 -26.5t-29 -16.5h-111q-23 0 -36 11.5t-21 21.5l-82 100q-12 14 -29 0l-125 -100q-10 -10 -28.5 -21.5t-40.5 -11.5h-132q-20 0 -22 16.5z" />
<glyph unicode="&#x2dc;" horiz-adv-x="1175" d="M291 1266l16 82q8 41 57.5 72.5t110.5 31.5q49 0 79 -8t56.5 -17.5t57.5 -17.5t84 -8q39 0 62.5 13t39.5 30q16 16 33.5 8t11.5 -37l-16 -82q-8 -41 -57.5 -72.5t-110.5 -31.5q-49 0 -79 8t-56.5 17.5t-58.5 17.5t-83 8q-35 0 -57.5 -11.5t-44.5 -31.5q-16 -14 -33.5 -7 t-11.5 36z" />
<glyph unicode="&#x2000;" horiz-adv-x="983" />
<glyph unicode="&#x2001;" horiz-adv-x="1966" />
<glyph unicode="&#x2002;" horiz-adv-x="983" />
<glyph unicode="&#x2003;" horiz-adv-x="1966" />
<glyph unicode="&#x2004;" horiz-adv-x="655" />
<glyph unicode="&#x2005;" horiz-adv-x="491" />
<glyph unicode="&#x2006;" horiz-adv-x="327" />
<glyph unicode="&#x2007;" horiz-adv-x="327" />
<glyph unicode="&#x2008;" horiz-adv-x="245" />
<glyph unicode="&#x2009;" horiz-adv-x="393" />
<glyph unicode="&#x200a;" horiz-adv-x="109" />
<glyph unicode="&#x2010;" horiz-adv-x="927" d="M168 477l29 139q4 16 19 28.5t32 12.5h559q16 0 25.5 -12t5.5 -29l-29 -139q-4 -16 -18.5 -28.5t-30.5 -12.5h-559q-16 0 -26.5 12.5t-6.5 28.5z" />
<glyph unicode="&#x2011;" horiz-adv-x="927" d="M168 477l29 139q4 16 19 28.5t32 12.5h559q16 0 25.5 -12t5.5 -29l-29 -139q-4 -16 -18.5 -28.5t-30.5 -12.5h-559q-16 0 -26.5 12.5t-6.5 28.5z" />
<glyph unicode="&#x2012;" horiz-adv-x="927" d="M168 477l29 139q4 16 19 28.5t32 12.5h559q16 0 25.5 -12t5.5 -29l-29 -139q-4 -16 -18.5 -28.5t-30.5 -12.5h-559q-16 0 -26.5 12.5t-6.5 28.5z" />
<glyph unicode="&#x2013;" horiz-adv-x="1146" d="M127 477l25 113q4 16 18 28.5t31 12.5h778q16 0 26.5 -12.5t6.5 -28.5l-25 -113q-4 -16 -18.5 -28.5t-30.5 -12.5h-778q-16 0 -26.5 12.5t-6.5 28.5z" />
<glyph unicode="&#x2014;" horiz-adv-x="1454" d="M131 477l25 113q4 16 18 28.5t31 12.5h1085q16 0 26.5 -12.5t6.5 -28.5l-25 -113q-4 -16 -18 -28.5t-31 -12.5h-1085q-16 0 -26.5 12.5t-6.5 28.5z" />
<glyph unicode="&#x2018;" horiz-adv-x="423" d="M139 942l39 184q10 41 27.5 71t40.5 56l139 150q8 10 22.5 20.5t36.5 10.5h29q29 0 35 -22.5t-12 -45.5l-131 -172q-8 -10 -3 -18.5t15 -8.5h35q16 0 26.5 -12t5.5 -29l-38 -184q-4 -16 -18.5 -28.5t-31.5 -12.5h-184q-16 0 -26.5 12.5t-6.5 28.5z" />
<glyph unicode="&#x2019;" horiz-adv-x="423" d="M139 923.5q-6 22.5 13 45.5l131 172q8 10 3 18t-16 8h-34q-16 0 -26.5 12.5t-6.5 28.5l39 185q4 16 18 28.5t31 12.5h184q16 0 26.5 -12.5t6.5 -28.5l-39 -185q-10 -41 -27.5 -70.5t-40.5 -56.5l-139 -149q-8 -10 -22.5 -20.5t-36.5 -10.5h-29q-29 0 -35 22.5z" />
<glyph unicode="&#x201a;" horiz-adv-x="524" d="M160 -243.5q-6 22.5 12 44.5l131 172q8 10 3 18.5t-15 8.5h-35q-16 0 -26.5 12.5t-6.5 28.5l39 184q4 16 18.5 28.5t30.5 12.5h185q16 0 26 -12t6 -29l-39 -184q-10 -41 -27.5 -70.5t-39.5 -56.5l-139 -150q-8 -10 -22.5 -20t-37.5 -10h-28q-29 0 -35 22.5z" />
<glyph unicode="&#x201c;" horiz-adv-x="833" d="M139 942l39 184q10 41 27.5 71t40.5 56l139 150q8 10 22.5 20.5t36.5 10.5h29q29 0 35 -22.5t-12 -45.5l-131 -172q-8 -10 -3 -18.5t15 -8.5h35q16 0 26.5 -12t5.5 -29l-38 -184q-4 -16 -18.5 -28.5t-31.5 -12.5h-184q-16 0 -26.5 12.5t-6.5 28.5zM549 942l39 184 q10 41 27.5 71t39.5 56l140 150q8 10 22 20.5t37 10.5h29q29 0 35 -22.5t-13 -45.5l-131 -172q-8 -10 -3 -18.5t15 -8.5h35q16 0 26.5 -12t6.5 -29l-39 -184q-4 -16 -18.5 -28.5t-30.5 -12.5h-184q-16 0 -26.5 12.5t-6.5 28.5z" />
<glyph unicode="&#x201d;" horiz-adv-x="833" d="M139 923.5q-6 22.5 13 45.5l131 172q8 10 3 18t-16 8h-34q-16 0 -26.5 12.5t-6.5 28.5l39 185q4 16 18 28.5t31 12.5h184q16 0 26.5 -12.5t6.5 -28.5l-39 -185q-10 -41 -27.5 -70.5t-40.5 -56.5l-139 -149q-8 -10 -22.5 -20.5t-36.5 -10.5h-29q-29 0 -35 22.5zM549 923.5 q-6 22.5 12 45.5l131 172q8 10 3 18t-15 8h-35q-16 0 -26.5 12.5t-6.5 28.5l39 185q4 16 18.5 28.5t30.5 12.5h185q16 0 26.5 -12.5t6.5 -28.5l-39 -185q-10 -41 -27.5 -70.5t-40.5 -56.5l-139 -149q-8 -10 -22.5 -20.5t-37.5 -10.5h-28q-29 0 -35 22.5z" />
<glyph unicode="&#x201e;" horiz-adv-x="935" d="M125 -243.5q-6 22.5 12 44.5l131 172q8 10 3 18.5t-15 8.5h-35q-16 0 -26.5 12.5t-6.5 28.5l39 184q4 16 18.5 28.5t30.5 12.5h185q16 0 26.5 -12t6.5 -29l-39 -184q-10 -41 -27.5 -70.5t-40.5 -56.5l-139 -150q-8 -10 -22.5 -20t-37.5 -10h-28q-29 0 -35 22.5z M534 -243.5q-6 22.5 13 44.5l131 172q8 10 3 18.5t-15 8.5h-35q-16 0 -26.5 12.5t-6.5 28.5l39 184q4 16 18.5 28.5t30.5 12.5h184q16 0 26.5 -12t6.5 -29l-39 -184q-10 -41 -27.5 -70.5t-39.5 -56.5l-140 -150q-8 -10 -22 -20t-37 -10h-29q-29 0 -35 22.5z" />
<glyph unicode="&#x2022;" horiz-adv-x="772" d="M164 420l80 368q4 16 18 28.5t31 12.5h369q16 0 26 -12t6 -29l-80 -368q-4 -16 -18 -28.5t-31 -12.5h-368q-16 0 -26.5 12t-6.5 29z" />
<glyph unicode="&#x2026;" horiz-adv-x="1411" d="M88 41l39 184q4 16 18.5 28.5t30.5 12.5h184q16 0 26.5 -12t6.5 -29l-39 -184q-4 -16 -18 -28.5t-31 -12.5h-184q-16 0 -26.5 12.5t-6.5 28.5zM551 41l39 184q4 16 18.5 28.5t30.5 12.5h184q16 0 26.5 -12t6.5 -29l-39 -184q-4 -16 -18.5 -28.5t-30.5 -12.5h-184 q-16 0 -26.5 12.5t-6.5 28.5zM1016 41l39 184q4 16 18 28.5t31 12.5h184q16 0 26.5 -12t6.5 -29l-39 -184q-4 -16 -18.5 -28.5t-30.5 -12.5h-184q-16 0 -26.5 12.5t-6.5 28.5z" />
<glyph unicode="&#x202f;" horiz-adv-x="393" />
<glyph unicode="&#x2039;" horiz-adv-x="643" d="M102.5 532.5q1.5 12.5 16.5 28.5l268 330q6 8 20.5 19.5t36.5 11.5h93q29 0 36 -18.5t-18 -49.5l-238 -297q-12 -14 -14 -23.5t4 -25.5l111 -297q12 -33 -3.5 -50.5t-43.5 -17.5h-92q-23 0 -32 11.5t-14 19.5l-124 330q-8 16 -6.5 28.5z" />
<glyph unicode="&#x203a;" horiz-adv-x="643" d="M68 161.5q-7 18.5 18 49.5l238 297q12 16 14 25.5t-4 23.5l-111 297q-12 33 3.5 50.5t43.5 17.5h92q23 0 32 -11.5t14 -19.5l124 -330q8 -16 6.5 -28.5t-16.5 -28.5l-268 -330q-6 -8 -20.5 -19.5t-36.5 -11.5h-93q-29 0 -36 18.5z" />
<glyph unicode="&#x205f;" horiz-adv-x="491" />
<glyph unicode="&#x20ac;" horiz-adv-x="1155" d="M4 532l19 86q4 16 19 28.5t32 12.5h80q14 0 16 6.5t2 10.5l27 117q2 4 1 9t-12 5h-84q-16 0 -26 12t-6 29l18 86q4 16 18.5 28.5t30.5 12.5h90q6 0 13.5 4t9.5 10l10 35q29 84 73 161t110.5 136t157.5 94t212 35q92 0 169 -28.5t129 -84t71.5 -134.5t-0.5 -179l-6 -29 q-4 -16 -18.5 -28.5t-31.5 -12.5h-112q-16 0 -26.5 12.5t-6.5 28.5l6 29q10 45 7 87t-26.5 74t-70.5 51t-127 19q-49 0 -99 -14t-93 -44t-77 -74t-48 -99l-9 -35q-4 -14 5 -14h344q16 0 26 -12.5t6 -28.5l-18 -86q-4 -16 -18.5 -28.5t-30.5 -12.5h-348q-8 0 -12.5 -6 t-6.5 -10l-24 -111q-2 -4 0 -12.5t12 -8.5h348q16 0 25.5 -12t5.5 -29l-19 -86q-4 -16 -18 -28t-31 -12h-340q-10 0 -13 -7.5t-5 -11.5q-16 -57 -15.5 -110.5t24.5 -94.5t73 -65.5t129 -24.5q51 0 102 15.5t94 44t75 72.5t44 100l6 28q4 16 18.5 28.5t30.5 12.5h113 q16 0 26.5 -12t6.5 -29l-6 -28q-18 -86 -62.5 -163t-114 -135.5t-163.5 -93t-213 -34.5q-117 0 -198 38.5t-127 106.5t-55 157t17 187q2 4 0 11.5t-16 7.5h-86q-16 0 -26.5 12t-6.5 28z" />
<glyph unicode="&#x2122;" horiz-adv-x="1507" d="M154 1315l22 98q4 20 25 21h471q20 0 16 -21l-22 -98q-4 -20 -25 -21h-156q-8 0 -12 -10l-117 -547q-4 -20 -24 -20h-99q-20 0 -16 20l117 547q4 10 -8 10h-156q-20 0 -16 21zM604 737l146 676q4 20 24 21h154q14 0 18 -19l31 -428q0 -4 4 -4t6 4l215 428q8 18 25 19h166 q20 0 16 -21l-145 -676q-4 -20 -25 -20h-90q-20 0 -16 20l96 451q2 4 -2 5t-6 -3l-244 -457q-8 -16 -25 -16h-43q-16 0 -18 16l-49 457q0 4 -3 3t-5 -5l-97 -451q-4 -20 -24 -20h-92q-20 0 -17 20z" />
<glyph unicode="&#xe000;" horiz-adv-x="1025" d="M0 0v1025h1025v-1025h-1025z" />
<glyph unicode="&#xfb01;" horiz-adv-x="1044" d="M92 870l21 103q4 16 19 28.5t32 12.5h153q20 0 25 20l6 31q20 104 62.5 178t100.5 119t134 65.5t164 20.5h297q14 0 21.5 -10.5t2.5 -22.5l-22 -112q-8 -33 -41 -33h-297q-98 0 -156.5 -49.5t-81.5 -155.5l-6 -31q-4 -20 17 -20h456q16 0 25.5 -12.5t5.5 -28.5l-196 -932 q-4 -16 -19.5 -28.5t-32.5 -12.5h-106q-16 0 -25.5 12.5t-5.5 28.5l162 768q4 20 -16 20h-287q-23 0 -27 -20l-166 -768q-4 -16 -19.5 -28.5t-31.5 -12.5h-102q-16 0 -25.5 12.5t-5.5 28.5l166 768q4 20 -14 20h-154q-16 0 -26.5 12.5t-6.5 28.5z" />
<glyph unicode="&#xfb02;" horiz-adv-x="1075" d="M92 870l21 103q4 16 19 28.5t32 12.5h153q20 0 25 20l6 31q20 104 62.5 178t100.5 119t134 65.5t164 20.5h20q16 0 26.5 -12.5t6.5 -28.5l-20 -96q-4 -16 -19.5 -28.5t-31.5 -12.5h-21q-98 0 -156.5 -49.5t-81.5 -155.5l-6 -31q-4 -20 17 -20h331q20 0 25 20l78 373 q4 16 19.5 28.5t31.5 12.5h102q16 0 25.5 -12.5t5.5 -28.5l-289 -1366q-4 -16 -19 -28.5t-32 -12.5h-102q-16 0 -25.5 12.5t-5.5 28.5l162 768q4 20 -16 20h-330q-23 0 -27 -20l-166 -768q-4 -16 -19.5 -28.5t-31.5 -12.5h-102q-16 0 -25.5 12.5t-5.5 28.5l166 768 q4 20 -14 20h-154q-16 0 -26.5 12.5t-6.5 28.5z" />
<glyph unicode="&#xfb03;" horiz-adv-x="1665" d="M92 870l21 103q4 16 19 28.5t32 12.5h153q20 0 25 20l6 31q20 104 62.5 178t100.5 119t134 65.5t164 20.5h20q16 0 26.5 -12.5t6.5 -28.5l-20 -96q-4 -16 -19.5 -28.5t-31.5 -12.5h-21q-98 0 -156.5 -49.5t-81.5 -155.5l-6 -31q-4 -20 17 -20h395q20 0 25 20l6 31 q20 104 62 178t100.5 119t134 65.5t164.5 20.5h296q14 0 21.5 -10.5t3.5 -22.5l-22 -112q-8 -33 -41 -33h-297q-98 0 -156.5 -49.5t-81.5 -155.5l-6 -31q-4 -20 16 -20h457q16 0 25.5 -12.5t5.5 -28.5l-197 -932q-4 -16 -19.5 -28.5t-31.5 -12.5h-107q-16 0 -25 12.5 t-5 28.5l161 768q6 20 -16 20h-287q-23 0 -26 -20l-164 -768q-4 -16 -19.5 -28.5t-31.5 -12.5h-103q-16 0 -25.5 12.5t-4.5 28.5l163 768q4 20 -14 20h-395q-23 0 -27 -20l-164 -768q-4 -16 -19 -28.5t-32 -12.5h-102q-16 0 -25.5 12.5t-5.5 28.5l164 768q4 20 -14 20h-154 q-16 0 -26.5 12.5t-6.5 28.5z" />
<glyph unicode="&#xfb04;" horiz-adv-x="1695" d="M92 870l21 103q4 16 19 28.5t32 12.5h153q20 0 25 20l6 31q20 104 62.5 178t100.5 119t134 65.5t164 20.5h20q16 0 26.5 -12.5t6.5 -28.5l-20 -96q-4 -16 -19.5 -28.5t-31.5 -12.5h-21q-98 0 -156.5 -49.5t-81.5 -155.5l-6 -31q-4 -20 17 -20h395q20 0 25 20l6 31 q20 104 62 178t100.5 119t134 65.5t164.5 20.5h20q16 0 26.5 -12.5t6.5 -28.5l-21 -96q-4 -16 -19.5 -28.5t-31.5 -12.5h-20q-98 0 -156.5 -49.5t-81.5 -155.5l-6 -31q-4 -20 16 -20h332q18 0 25 20l77 373q4 16 19.5 28.5t32.5 12.5h102q16 0 25.5 -12.5t5.5 -28.5 l-289 -1366q-4 -16 -19.5 -28.5t-31.5 -12.5h-103q-16 0 -25 12.5t-5 28.5l161 768q4 20 -16 20h-330q-23 0 -26 -20l-166 -768q-4 -16 -19.5 -28.5t-31.5 -12.5h-103q-16 0 -25.5 12.5t-4.5 28.5l165 768q4 20 -14 20h-395q-23 0 -27 -20l-166 -768q-4 -16 -19.5 -28.5 t-31.5 -12.5h-102q-16 0 -25.5 12.5t-5.5 28.5l166 768q4 20 -14 20h-154q-16 0 -26.5 12.5t-6.5 28.5z" />
</font>
</defs>
</svg>
